<svg xmlns="http://www.w3.org/2000/svg" viewBox="23 23 33.76300048828125 13"><g id="Group 8"><path id="Rectangle 21 (Stroke)" fill-rule="evenodd" clip-rule="evenodd" d="M23 27.295C23 24.923 24.923 23 27.295 23C29.6671 23 31.5901 24.923 31.5901 27.295V31.636C31.5901 32.2702 31.0759 32.7844 30.4417 32.7844C29.8074 32.7844 29.2933 32.2702 29.2933 31.636V27.295C29.2933 26.1914 28.3986 25.2968 27.295 25.2968C26.1914 25.2968 25.2968 26.1914 25.2968 27.295V34.5759C25.2968 35.2102 24.7826 35.7243 24.1484 35.7243C23.5142 35.7243 23 35.2102 23 34.5759V27.295Z" fill="black" data-darkreader-inline-fill="" style="--darkreader-inline-fill: var(--darkreader-text-000000, #e8e6e3);"></path><rect id="Rectangle 26" x="36.5974" y="27.9153" width="3.53708" height="2.29681" rx="1.1484" fill="black" data-darkreader-inline-fill="" style="--darkreader-inline-fill: var(--darkreader-text-000000, #e8e6e3);"></rect><path id="Rectangle 22 (Stroke)" fill-rule="evenodd" clip-rule="evenodd" d="M44.1761 27.295C44.1761 24.923 42.2531 23 39.8811 23C37.509 23 35.586 24.923 35.586 27.295V31.636C35.586 32.2702 36.1002 32.7844 36.7344 32.7844C37.3687 32.7844 37.8828 32.2702 37.8828 31.636V27.295C37.8828 26.1914 38.7775 25.2968 39.8811 25.2968C40.9846 25.2968 41.8793 26.1914 41.8793 27.295V31.636C41.8793 32.2702 42.3934 32.7844 43.0277 32.7844C43.6619 32.7844 44.1761 32.2702 44.1761 31.636V27.295Z" fill="black" data-darkreader-inline-fill="" style="--darkreader-inline-fill: var(--darkreader-text-000000, #e8e6e3);"></path><path id="Rectangle 23 (Stroke)" fill-rule="evenodd" clip-rule="evenodd" d="M56.763 27.295C56.763 24.923 54.84 23 52.468 23C50.0959 23 48.1729 24.923 48.1729 27.295V31.636C48.1729 32.2702 48.6871 32.7844 49.3213 32.7844C49.9556 32.7844 50.4697 32.2702 50.4697 31.636V27.295C50.4697 26.1914 51.3644 25.2968 52.468 25.2968C53.5715 25.2968 54.4662 26.1914 54.4662 27.295V34.5759C54.4662 35.2102 54.9803 35.7243 55.6146 35.7243C56.2488 35.7243 56.763 35.2102 56.763 34.5759V27.295Z" fill="black" data-darkreader-inline-fill="" style="--darkreader-inline-fill: var(--darkreader-text-000000, #e8e6e3);"></path><path id="Rectangle 24 (Stroke)" fill-rule="evenodd" clip-rule="evenodd" d="M29.2924 31.705C29.2924 34.077 31.2154 36 33.5874 36C35.9595 36 37.8825 34.077 37.8825 31.705V27.364H35.5857V31.705C35.5857 32.8086 34.691 33.7032 33.5874 33.7032C32.4839 33.7032 31.5892 32.8086 31.5892 31.705V27.364H29.2924V31.705Z" fill="black" data-darkreader-inline-fill="" style="--darkreader-inline-fill: var(--darkreader-text-000000, #e8e6e3);"></path><path id="Rectangle 25 (Stroke)" fill-rule="evenodd" clip-rule="evenodd" d="M41.8798 31.705C41.8798 34.077 43.8028 36 46.1749 36C48.5469 36 50.4699 34.077 50.4699 31.705V27.364H48.1731V31.705C48.1731 32.8086 47.2784 33.7032 46.1749 33.7032C45.0713 33.7032 44.1766 32.8086 44.1766 31.705V27.364H41.8798V31.705Z" fill="black" data-darkreader-inline-fill="" style="--darkreader-inline-fill: var(--darkreader-text-000000, #e8e6e3);"></path></g></svg>