<svg width="263" height="263" viewBox="0 0 263 263" fill="none" xmlns="http://www.w3.org/2000/svg">
<g id="nixora-icon" clip-path="url(#clip0_21_2)">
<path id="Vector" d="M89.6297 89.3881C92.8889 89.0532 94.2322 93.2813 91.2408 94.7298C88.4407 95.1587 87.3215 90.8608 89.6297 89.3881Z" fill="#5B1E5E"/>
<path id="Vector_2" d="M129.9 34.8444C133.356 34.4156 134.809 37.7208 132.48 38.6976C131.218 39.2263 129.294 39.0055 127.917 39.139C118.281 40.0732 109.714 44.3082 102.823 51.1341C94.0063 59.8657 91.3257 69.9982 91.2519 81.8783C91.2442 83.1175 91.2683 83.7228 90.3337 84.6415C88.2389 85.5832 87.2597 84.4101 87.1192 82.3538C85.3757 56.845 104.685 36.4945 129.9 34.8444Z" fill="#5B1E5E"/>
<path id="Vector_3" d="M159.948 51.6264C156.564 47.1367 148.793 42.8131 143.468 40.9243C141.448 40.2075 137.526 40.2279 138.032 37.1935C138.354 35.257 140.905 35.7176 142.236 36.0926C174.961 45.3089 186.405 86.0946 163.822 111.638C162.772 112.827 161.682 114.113 160.409 115.063V123.838C164.331 127.321 166.394 130.947 168.216 135.801C174.772 135.754 179.625 136.061 184.767 130.819C188.731 126.779 189.346 121.778 189.269 116.357L189.196 105.794C189.195 104.096 189.122 102.363 189.204 100.67C179.34 94.9294 180.843 80.4138 192.283 77.4568C205.483 74.0447 214.604 91.0603 202.782 100.284L202.785 114.598C202.786 117.642 202.967 120.816 202.637 123.836C201.351 135.641 190.869 146.166 179.396 148.512C177.492 148.901 175.474 148.923 173.614 149.478C178.621 152.395 183.128 151.618 188.724 151.608C198.294 151.59 212.425 153.95 214.548 140.978C215.411 135.71 214.519 127.052 214.742 121.345C208.763 117.907 206.827 109.876 210.325 103.978C219.255 88.9234 241.687 103.014 232.562 117.284C231.366 119.152 229.772 120.375 228.129 121.816L228.132 133.957C228.141 143.128 228.124 150.305 220.92 157.46C211.242 167.072 200.883 164.776 188.656 164.785C190.081 166.376 191.985 167.431 193.49 168.937C200.477 175.928 199.737 179.503 201.834 187.504C212.05 195.215 208.132 209.676 196.721 211.258C182.088 213.287 176.647 193.81 188.266 187.504C187.797 183.384 186.332 180.165 183.029 177.532C175.249 171.33 169.184 178.756 156.002 164.148C152.537 166.119 150.134 167.034 146.283 168.122C145.284 176.271 150.522 178.18 156.894 179.933C165.094 182.19 171.217 190.11 172.404 198.358C172.968 202.279 172.567 206.295 172.687 210.241C178.96 215.094 176.533 224.902 168.29 225.707C163.558 226.17 159.503 222.184 159.175 217.627C158.707 211.127 160.851 198.637 156.007 194.284C153.617 192.138 150.698 192.44 147.842 191.489C137.423 188.022 132.635 178.475 132.715 168.122C131.778 168.101 130.837 168.062 129.901 168.122C129.948 178.481 125.173 187.481 115.323 191.327C111.826 192.693 108.532 191.995 105.908 195.177C103.163 198.507 103.47 202.322 103.483 206.382L103.506 213.887C103.515 217.295 103.666 220.268 101.215 222.957C93.4644 231.464 79.5105 218.629 90.3339 209.891C90.4888 202.806 89.5835 197.596 93.0053 190.953C97.6489 181.936 101.904 181.729 109.812 179.11C114.967 177.403 116.492 172.694 116.389 167.771C113.01 167.432 109.253 166.036 106.597 163.906C100.709 169.374 96.4353 173.776 88.1755 174.884C79.5679 176.039 75.8594 177.884 74.9289 187.801C85.3159 195.53 81.255 209.928 69.5944 211.481C55.401 213.371 49.5854 193.428 61.8732 187.504C62.0153 178.095 66.2737 168.974 74.9289 164.785L64.7631 164.791C53.4493 164.801 44.7747 163.239 38.1165 152.431C34.5155 146.586 34.6313 141.191 34.631 134.612L34.6386 121.345C28.4136 117.774 26.4628 110.015 30.0263 103.815C35.6752 93.9866 50.8397 96.3764 53.497 107.124C54.7727 112.285 52.6717 118.69 47.8516 121.345L47.8459 132.071C47.8421 141.911 48.4019 151.812 61.1233 151.659L75.5414 151.611C82.2844 151.628 83.3108 151.943 89.6292 149.478C79.1591 147.79 72.5207 146.182 65.6612 136.685C59.2696 127.836 59.5486 111.382 60.2631 100.284C45.3403 87.7426 62.956 69.6053 75.3978 80.2394C82.2598 86.1043 80.544 95.6747 73.5204 100.284L73.5163 112.517C73.5173 116.312 73.1968 120.481 74.139 124.178C76.3093 132.696 85.7247 137.898 94.1517 135.801C96.7831 130.224 97.057 127.45 102.488 123.011V116.106C99.972 113.641 91.5044 104.378 91.5214 100.628C91.5291 98.8318 93.8321 98.0096 94.9344 99.4006C95.5777 100.212 96.009 101.343 96.5158 102.257C100.066 108.655 102.712 109.667 106.597 114.175V121.816C107.898 121.901 109.152 121.932 110.452 121.816C110.783 121.795 111.022 121.848 111.285 121.632C111.576 118.194 112.54 110.888 109.165 109.243C107.009 109.602 106.164 108.529 105.244 106.685C95.2802 97.5715 94.0742 79.9378 98.2059 67.4848C98.2947 66.3753 98.644 65.4115 99.3395 64.538C102.916 58.4777 106.713 52.6256 113.273 49.4243C113.86 48.9637 114.398 48.6121 115.071 48.2885L115.196 48.1915C119.986 44.5666 129.642 42.5913 135.76 43.4432C136.714 43.3861 137.31 43.4576 138.205 43.841C144.379 44.5655 150.06 46.4765 155.653 49.1458C157.036 49.8063 158.579 51.2423 159.948 51.6264ZM66.8148 207.566C62.1322 202.181 61.7983 193.478 69.6426 191.91C70.7331 191.691 71.8698 191.725 72.9685 191.511L73.1024 191.484C58.9403 184.917 53.5565 203.754 66.8148 207.566ZM66.8148 97.5859C57.8185 92.4806 61.886 81.2032 73.5204 84.3245C66.2993 75.859 53.4626 86.7563 60.7314 95.2012C62.3964 97.136 64.3589 97.9029 66.8148 97.5859ZM41.1423 118.86C34.3996 114.787 33.1724 107.308 41.1005 103.85C42.2187 103.363 43.3745 103.027 44.446 102.428L44.6218 102.328C28.7917 98.6015 29.5324 119.391 41.1423 118.86ZM219.62 118.86C215.042 114.664 214.204 107.892 220.003 104.461C222.643 102.899 224.448 103.374 227.162 104.063L227.317 104.101C223.623 100.936 218.189 100.958 214.9 104.753C210.741 109.552 213.273 117.805 219.62 118.86ZM192.76 97.5859C186.138 90.256 192.069 80.9211 199.932 83.5956C200.494 83.7869 201.02 84.0695 201.587 84.2485L201.834 84.3245C199.048 80.6959 193.574 80.3564 190.067 83.1155C184.767 87.2836 186.127 95.5782 192.76 97.5859ZM190.425 205.777C187.863 202.249 188.213 197.448 191.251 194.27C193.694 191.716 196.61 191.56 199.934 191.484C190.171 184.25 180.509 200.556 190.425 205.777Z" fill="#5B1E5E"/>
<path id="Vector_4" d="M162.978 85.8115C162.848 88.5998 161.674 93.4424 159.948 95.6126C158.321 91.8564 159.355 87.9063 162.978 85.8115Z" fill="#FEB659"/>
<path id="Vector_5" d="M94.4984 212.902C100.311 212.639 100.95 219.756 95.6079 221.485C89.6794 221.683 88.9546 214 94.4984 212.902Z" fill="#6ADFEC"/>
<path id="Vector_6" d="M167.763 212.902C172.191 211.966 174.105 220.268 168.216 221.485C162.309 221.458 161.296 213.896 167.763 212.902Z" fill="#6ADFEC"/>
<path id="Vector_7" d="M145.294 111.816C145.254 109.426 145.188 107.09 146.188 104.857C148.048 100.706 153.466 98.3609 157.701 100.284C156.543 104.25 148.766 109.671 145.294 111.816Z" fill="#FEB659"/>
<path id="Vector_8" d="M66.8145 97.5859C57.8182 92.4807 61.8858 81.2033 73.5201 84.3245C78.9542 88.5541 73.4258 98.9811 66.8145 97.5859Z" fill="#6ADFEC"/>
<path id="Vector_9" d="M73.1026 191.484C75.1903 193.845 76.8476 195.897 76.666 199.228C76.389 204.311 71.8342 208.007 66.8151 207.566C62.1325 202.181 61.7986 193.478 69.6429 191.91C70.7334 191.691 71.8701 191.725 72.9688 191.511L73.1026 191.484Z" fill="#6ADFEC"/>
<path id="Vector_10" d="M104.53 126.46C105.6 125.194 111.09 126.065 113.273 125.793L113.494 125.961C112.901 126.794 110.751 127.772 109.809 128.533C100.701 136.36 100.262 149.096 107.93 158.159C108.548 158.888 112.146 161.926 112.296 162.41C109.596 161.497 107.117 159.696 105.076 157.738C95.5008 148.555 95.3711 135.95 104.53 126.46Z" fill="#D4F7FA"/>
<path id="Vector_11" d="M192.761 97.5859C186.139 90.2561 192.07 80.9212 199.932 83.5956C200.495 83.7869 201.02 84.0695 201.587 84.2486L201.835 84.3245C207.881 89.8919 200.319 101.204 192.761 97.5859Z" fill="#6ADFEC"/>
<path id="Vector_12" d="M44.6216 102.328C53.8866 108.214 49.0362 119.306 41.1421 118.86C34.3994 114.787 33.1722 107.308 41.1003 103.85C42.2184 103.363 43.3743 103.027 44.4458 102.428L44.6216 102.328Z" fill="#6ADFEC"/>
<path id="Vector_13" d="M219.62 118.86C215.042 114.664 214.203 107.892 220.003 104.461C222.643 102.899 224.448 103.374 227.162 104.063L227.317 104.101C234.863 110.279 226.725 121.463 219.62 118.86Z" fill="#6ADFEC"/>
<path id="Vector_14" d="M199.934 191.484C205.921 195.797 203.698 205.99 196.19 207.045C194.49 207.284 191.731 207.019 190.425 205.777C187.863 202.249 188.213 197.448 191.251 194.27C193.694 191.716 196.61 191.56 199.934 191.484Z" fill="#6ADFEC"/>
<path id="Vector_15" d="M99.34 158.013C100.559 159.233 101.825 160.373 103.113 161.519C95.8767 169.604 92.7775 169.478 83.4575 171.219C75.5644 172.694 72.2206 178.261 70.8983 185.687L70.8229 185.964C69.9252 186.304 67.3713 185.806 66.326 185.687C66.3054 184.351 66.3947 183.313 66.8153 182.042C67.0487 173.749 76.9837 166.746 84.7962 165.918C92.4672 165.104 93.7572 163.023 99.34 158.013Z" fill="#6ADFEC"/>
<path id="Vector_16" d="M163.36 157.487C168.757 163.215 171.906 164.214 179.04 165.785C189.111 168.004 195.478 175.616 197.309 185.687C196.108 185.656 194.906 185.674 193.704 185.687H192.761C190.713 178.284 186.278 172.135 178.127 170.8C170.398 169.535 165.231 169.337 159.948 161.519C160.975 160.094 162.197 158.802 163.36 157.487Z" fill="#6ADFEC"/>
<path id="Vector_17" d="M120.765 168.122C122.368 168.117 123.995 168.054 125.596 168.122C125.657 174.1 124.798 178.439 120.486 182.879C115.826 187.678 113.294 187.178 107.885 189.012C97.5413 192.518 100.068 202 99.3396 209.453C99.1385 209.767 98.1516 209.492 97.8429 209.453C96.6759 208.939 95.7675 208.812 94.498 208.795C94.4847 200.587 93.9953 194.238 100.311 187.938C107.795 180.472 120.147 186.544 120.765 168.122Z" fill="#6ADFEC"/>
<path id="Vector_18" d="M137.071 168.122H141.851C141.844 174.387 144.144 180.066 150.463 182.549C156.44 184.899 159.411 183.629 164.52 190.145C168.146 194.769 169.031 202.726 168.347 208.547C168.035 208.783 167.565 208.759 167.186 208.795C165.773 208.853 164.614 209.282 163.36 209.891L163.368 202.643C163.353 196.73 160.914 191.038 154.976 188.979C152.822 188.232 150.528 188.064 148.404 187.179C139.673 183.544 137.043 176.689 137.071 168.122Z" fill="#6ADFEC"/>
<path id="Vector_19" d="M64.3832 101.948C66.0528 102.03 67.7178 102.038 69.3868 101.948C69.6731 113.705 66.5919 126.241 76.0565 134.974C81.2521 139.769 87.0159 140.344 93.7287 140.053C93.6866 141.66 93.6789 143.256 93.7287 144.863L93.6046 145.052C79.585 147.692 65.5614 135.495 64.4262 121.37C64.2262 118.88 64.3791 116.286 64.3796 113.783L64.3832 101.948Z" fill="#6ADFEC"/>
<path id="Vector_20" d="M198.2 102.328L198.392 102.311C198.775 103 198.657 120.235 198.509 122.288C197.427 137.268 183.374 146.036 169.171 144.863C168.037 144.817 168.554 141.53 168.39 140.053L172.751 140.087C181.661 140.118 190.337 134.176 192.704 125.442C193.714 121.713 193.372 117.551 193.372 113.708L193.366 102.328C194.991 102.455 196.576 102.426 198.2 102.328Z" fill="#6ADFEC"/>
<path id="Vector_21" d="M109.165 109.243L109.261 109.141C110.648 107.65 109.73 106.576 109.132 104.941C105.963 96.2841 123.363 92.1627 123.466 105.148L123.447 121.816L115.007 121.825C113.495 121.828 111.96 121.902 110.451 121.816C110.782 121.795 111.021 121.848 111.285 121.632C111.575 118.194 112.54 110.888 109.165 109.243Z" fill="#FEB659"/>
<path id="Vector_22" d="M147.283 125.793C149.366 125.721 154.499 125.503 156.424 125.793C159.971 128.135 163.175 133.365 164.001 137.378C167.12 152.522 154.791 164.367 139.894 163.906C141.203 163.605 142.814 162.478 143.925 161.75C154.463 154.85 160.77 143.398 153.076 131.871C151.873 130.069 149.458 126.229 147.283 125.793Z" fill="#379F9A"/>
<path id="Vector_23" d="M38.6977 123.011H43.6875L43.681 134.032C43.6713 143.198 44.6338 152.498 55.7322 155.234C59.7675 156.229 67.6334 155.822 72.1492 155.822C81.2774 155.821 88.2969 157.193 95.0307 149.478C95.3231 150.328 97.2548 154.188 97.2446 154.388C92.858 159.141 87.0018 160.868 80.6804 160.884H67.8606C59.1032 160.886 51.5841 161.101 44.8928 154.377C38.7782 148.232 38.6914 141.892 38.6914 133.982L38.6977 123.011Z" fill="#6ADFEC"/>
<path id="Vector_24" d="M219.001 123.011C220.747 123.194 222.277 123.277 224.021 123.011L224.026 133.174C224.029 139.769 224.262 145.787 220.291 151.497C214.621 159.648 207.48 160.89 198.517 160.881L182.686 160.892C176.211 160.912 173.876 160.583 168.389 156.741C167.539 155.713 166.693 154.686 165.885 153.624C166.515 152.047 167.173 150.488 167.763 148.895C170.961 153.037 174.536 155.796 180.099 155.823L193.206 155.816C200.982 155.826 208.297 156.765 214.258 150.784C219.328 145.698 219.012 140.137 219.008 133.503L219.001 123.011Z" fill="#6ADFEC"/>
<path id="Vector_25" d="M138.205 43.841C144.38 44.5655 150.06 46.4765 155.653 49.1458C157.037 49.8063 158.58 51.2423 159.948 51.6264C163.271 54.0844 167.523 61.999 168.947 65.9311C174.359 80.8693 170.639 99.3616 159.177 110.558C158.287 111.427 157.167 112.29 156.425 113.277C156.202 116.063 156.434 119.013 156.425 121.816H145.294V111.816C148.766 109.671 156.543 104.25 157.701 100.284C159.504 100.815 162.149 104.711 163.466 101.071C164.217 98.9939 161.145 97.9742 159.948 95.6126C161.674 93.4424 162.847 88.5998 162.978 85.8114C164.708 84.6168 164.652 82.8554 162.978 81.6977C163.185 80.4938 162.797 79.3049 163.113 78.0923L162.978 77.9374C164.801 77.1762 164.825 73.8272 162.381 73.7611C163.408 72.4628 158.241 60.2945 156.425 58.7244C158.176 57.3897 157.524 54.9994 155.13 55.0687C154.417 55.0892 153.68 55.4744 152.995 55.6791C147.25 57.3979 140.503 54.2583 139.139 48.1169C138.821 46.6859 138.866 45.183 138.205 43.841Z" fill="url(#paint0_linear_21_2)"/>
<path id="Vector_26" d="M113.273 125.793C116.043 125.98 118.954 125.786 121.743 125.787L139.252 125.797C141.95 125.791 144.586 125.549 147.283 125.793C149.458 126.229 151.873 130.069 153.076 131.871C160.769 143.398 154.463 154.85 143.925 161.75C142.813 162.478 141.202 163.605 139.893 163.906C133.876 164.006 116.743 164.721 112.296 162.41C112.146 161.926 108.548 158.888 107.93 158.159C100.262 149.096 100.701 136.36 109.809 128.533C110.751 127.772 112.901 126.794 113.494 125.961L113.273 125.793Z" fill="#6ADFEC"/>
<path id="Vector_27" d="M145.293 134.433C156.835 133.638 157.51 148.493 147.756 149.478C137.617 151.014 135.359 136.068 145.293 134.433Z" fill="#5B1E5E"/>
<path id="eye-right" d="M146.283 138.122C151.359 137.939 152.242 144.881 147.282 145.745C141.934 145.914 141.134 139.816 146.283 138.122Z" fill="#FFC74B"/>
<path id="Vector_28" d="M115.071 133.402C124.77 132.17 127.144 148.127 116.39 149.478C105.584 149.794 104.83 134.878 115.071 133.402Z" fill="#5B1E5E"/>
<path id="eye-left" d="M115.071 138.122C119.61 136.753 121.382 143.533 116.389 145.072C111.418 145.99 110.003 138.346 115.071 138.122Z" fill="#FFC74B"/>
<path id="Vector_29" d="M115.071 48.2885L115.196 48.1915C119.985 44.5666 129.641 42.5913 135.76 43.4432C136.713 43.3862 137.309 43.4577 138.204 43.841C138.866 45.1831 138.82 46.6859 139.138 48.117C140.502 54.2583 147.249 57.398 152.994 55.6791C153.679 55.4745 154.417 55.0892 155.129 55.0687C157.523 54.9995 158.176 57.3898 156.424 58.7244C158.24 60.2945 163.407 72.4629 162.381 73.7611C164.825 73.8273 164.8 77.1762 162.978 77.9374L163.112 78.0923C162.796 79.3049 163.184 80.4939 162.978 81.6977C156.709 81.2797 154.381 90.2038 155.307 95.6127C147.542 95.2341 141.447 100.9 141.199 108.67C141.06 113.04 141.194 117.443 141.189 121.816H127.559L127.566 111.348C127.565 108.067 127.856 104.231 126.983 101.047C123.175 87.1513 101.91 91.2409 105.244 106.685C95.2799 97.5716 94.074 79.9379 98.2057 67.4848C98.2945 66.3753 98.6438 65.4115 99.3393 64.538C102.915 58.4777 106.713 52.6256 113.273 49.4243C113.86 48.9637 114.398 48.6122 115.071 48.2885Z" fill="#FEB659"/>
<path id="Vector_30" d="M99.3392 64.538C110.235 64.3846 115.823 76.6079 108.316 83.9864C106.64 85.6335 100.705 88.2556 98.5662 86.1664C95.7214 83.3873 101.687 82.7585 102.596 82.5189C107.568 81.2099 109.026 75.0096 105.789 71.3031C103.403 68.5702 102.107 69.337 99.3392 68.3978C98.9581 68.1034 98.5534 67.8187 98.2056 67.4848C98.2943 66.3753 98.6436 65.4115 99.3392 64.538Z" fill="#5B1E5E"/>
<path id="Vector_31" d="M133.176 69.5561C147.969 68.6815 149.253 91.8046 134.08 92.4914C119.354 93.2106 117.358 70.9169 133.176 69.5561Z" fill="#5B1E5E"/>
<path id="Vector_32" d="M132.715 73.7611C141.737 72.5054 144.418 85.9803 134.676 88.3336C124.938 89.1851 122.505 75.8534 132.715 73.7611Z" fill="#FEB659"/>
<path id="Vector_33" d="M115.071 48.2885L115.196 48.1915C119.986 44.5666 129.642 42.5913 135.761 43.4432C136.714 43.3862 137.31 43.4577 138.205 43.841C138.866 45.1831 138.821 46.6859 139.139 48.117C140.502 54.2583 147.25 57.398 152.994 55.6791C153.679 55.4745 154.417 55.0892 155.129 55.0687C157.523 54.9995 158.176 57.3898 156.424 58.7244C158.24 60.2945 163.408 72.4629 162.381 73.7611C164.825 73.8273 164.8 77.1762 162.978 77.9374C154.288 76.2417 149.524 68.8774 151.133 60.2494C145.24 60.453 140.133 58.3664 137.07 53.0416C132.086 58.2335 126.646 60.4376 119.569 57.4498C118.879 61.2439 117.636 63.8604 114.468 66.2363C113.406 67.0324 111.754 67.9778 110.868 66.4708C108.78 62.9166 119.178 60.8592 113.723 51.8983C113.151 50.9587 113.01 50.5034 113.273 49.4243C113.86 48.9637 114.398 48.6122 115.071 48.2885Z" fill="#5B1E5E"/>
<path id="Vector_34" d="M162.381 73.7611C156.544 71.3821 152.147 64.003 156.424 58.7244C158.241 60.2945 163.408 72.4628 162.381 73.7611Z" fill="#FEB659"/>
<path id="Vector_35" d="M115.071 48.2885L115.197 48.1915C119.986 44.5666 129.642 42.5913 135.761 43.4432C134.764 44.2602 134.664 45.2086 134.568 46.42C133.939 54.308 123.768 57.6195 118.594 51.4238C117.558 50.1829 116.982 48.4708 115.198 48.2996L115.071 48.2885Z" fill="#FEB659"/>
<g id="code-icon">
<path id="Vector_36" d="M145.391 206.14C147.466 206.032 148.942 207.309 148.945 209.415L148.944 232.39C148.943 233.957 148.409 235.397 146.59 235.612C146.206 235.658 145.807 235.629 145.421 235.625L117.087 235.623C115.994 235.615 115.215 235.703 114.335 234.837C113.704 234.217 113.506 233.511 113.504 232.647L113.503 209.479C113.503 207.892 114.122 206.422 115.918 206.178C116.328 206.122 116.755 206.139 117.168 206.139L145.391 206.14ZM116.254 207.965C114.992 208.196 115.294 209.691 115.295 210.622L115.297 214.021H146.071H147.074L147.073 210.506C147.076 207.689 146.966 207.965 144.488 207.965L117.914 207.964C117.365 207.963 116.801 207.914 116.254 207.965ZM135.648 219.388C135.031 219.537 134.88 220.027 135.067 220.598C135.162 220.888 136.055 221.634 136.294 221.872L139.401 224.98C138.448 225.839 137.557 226.786 136.649 227.692L135.742 228.6C135.305 229.038 134.67 229.568 135.279 230.201C135.553 230.486 135.953 230.547 136.297 230.355C136.724 230.005 137.101 229.582 137.492 229.192L139.482 227.227C139.949 226.761 140.734 226.09 141.12 225.61C141.767 224.806 140.951 224.159 140.42 223.629L139.238 222.442C138.585 221.777 137.931 221.116 137.267 220.462C136.849 220.05 136.315 219.271 135.648 219.388ZM126.507 219.388C125.914 219.462 125.552 220.036 125.159 220.431L121.975 223.55C120.535 224.949 120.622 225.071 122.166 226.567L125.484 229.755C125.752 230.008 126 230.342 126.364 230.459C127.128 230.567 127.701 229.741 127.173 229.116C126.908 228.801 126.572 228.521 126.279 228.229C125.182 227.134 123.982 226.081 122.91 224.98C124.026 223.896 125.132 222.81 126.212 221.69C126.511 221.38 127.005 220.947 127.243 220.613C127.658 220.03 127.155 219.363 126.507 219.388ZM132.513 219.388C131.646 219.763 131.391 221.455 131.094 222.342L129.72 226.446C129.442 227.3 128.937 228.535 128.739 229.358C128.571 230.058 129.114 230.527 129.771 230.459C130.577 230.168 130.71 228.906 130.961 228.147L133.213 221.525C133.521 220.632 134.055 219.362 132.513 219.388Z" fill="#32475F"/>
<path id="Vector_37" d="M123.096 210.101C123.548 210.085 124.776 210.032 125.158 210.207C125.965 210.576 125.636 211.589 124.902 211.818C124.416 211.86 123.065 211.895 122.708 211.644C122.033 211.169 122.323 210.215 123.096 210.101Z" fill="#118AE3"/>
<path id="Vector_38" d="M127.814 210.101C128.258 210.098 129.592 210.042 129.943 210.129C130.828 210.351 130.805 211.34 129.969 211.818C129.561 211.836 128.048 211.868 127.737 211.745C126.914 211.42 127.061 210.384 127.814 210.101Z" fill="#118AE3"/>
<path id="Vector_39" d="M117.807 210.101L119.105 210.101C119.443 210.098 119.834 210.037 120.146 210.201C120.881 210.588 120.664 211.603 119.894 211.818C119.425 211.816 117.961 211.905 117.615 211.721C116.889 211.335 117.06 210.321 117.807 210.101Z" fill="#118AE3"/>
</g>
<g id="blockchain-icon">
<path id="Vector_40" d="M41.2377 48.7476C41.4961 48.7413 43.7806 49.9974 44.2182 50.3422L44.2468 50.3649C44.4643 50.5348 44.3631 50.8947 44.3576 51.1293C44.3399 51.8967 44.3436 52.6732 44.3598 53.4406C44.3661 53.7375 44.4764 54.2145 44.2237 54.4418C43.6883 54.9232 42.4614 55.358 41.7805 55.846C41.7821 57.2184 41.7584 58.5956 41.785 59.9674C43.2781 60.2027 44.096 61.9701 43.4965 63.3547C43.1405 64.1773 42.5829 64.4869 41.7902 64.8032L41.7945 68.872C42.1911 69.0385 44.1972 70.0791 44.3755 70.2947C44.3945 70.4555 44.3786 70.6238 44.3772 70.7856L44.3774 71.5632C44.3779 71.8857 44.4503 74.043 44.3375 74.1885C44.1788 74.3933 41.5806 75.8331 41.2924 75.8689C40.9532 75.7712 38.4491 74.4076 38.3042 74.2467C38.1616 74.0882 38.2138 72.9129 38.2203 72.6494C37.7418 72.6695 37.2563 72.651 36.7769 72.6512L33.953 72.654C33.8745 72.8741 33.8014 73.1006 33.7033 73.3128C33.1361 74.5391 31.6317 74.9694 30.4494 74.3977C29.6531 74.0126 29.3748 73.4545 29.0991 72.6592L26.2432 72.6623C25.7615 72.6627 25.2764 72.6485 24.7952 72.6638C24.804 74.7182 24.9167 74.1948 23.2079 75.1579C22.8318 75.37 22.1341 75.8956 21.7143 75.9194C21.3253 75.8361 18.8241 74.4105 18.7352 74.2738C18.5783 74.0325 18.662 72.7086 18.6618 72.3857L18.6615 71.3092C18.6624 70.1038 18.6597 70.2766 19.7553 69.7058C20.251 69.4476 20.7475 69.1904 21.2221 68.8941L21.2177 64.8254C18.458 64.0346 18.7899 60.4531 21.2125 59.9896L21.2086 57.0229C21.209 56.6127 21.1958 56.2003 21.208 55.7904C20.5376 55.4902 19.7177 55.013 19.0538 54.6515C18.4807 54.3394 18.6373 53.9379 18.6422 53.3817L18.6414 51.9145C18.6374 50.4926 18.3099 50.5898 19.4535 49.965L20.4941 49.3941C20.8966 49.1741 21.2782 48.8789 21.7285 48.7686C22.1869 48.894 24.5198 50.2209 24.6896 50.4034C24.8442 50.5694 24.7858 51.839 24.7731 52.1301C24.9255 52.1415 25.0845 52.1309 25.2375 52.1306L29.077 52.1255C29.5158 49.5871 33.2901 49.4181 33.931 52.1203L38.1982 52.1157C38.2531 51.7784 38.1039 50.6326 38.3139 50.4149C38.5355 50.1853 40.8428 48.826 41.2377 48.7476ZM24.7742 53.1573C24.7814 54.556 24.997 54.3223 23.7155 55.0028C23.2239 55.2638 22.7237 55.5169 22.2387 55.7893C22.2358 57.1879 22.222 58.5902 22.2432 59.9884C23.2993 60.2384 23.84 60.8978 24.2068 61.8512C24.5286 61.8405 24.8525 61.85 25.1745 61.8499L27.0008 61.8482L26.9992 60.4198C27.0474 59.7861 28.0348 59.5159 28.5811 59.2227C29.3896 58.7889 30.1903 58.3353 31.0047 57.9129L31.0036 56.0594C31.0034 55.754 31.0185 55.441 31.0017 55.1364C30.0514 54.9045 29.2294 54.1368 29.0781 53.1526C28.1783 53.1265 27.2702 53.1551 26.3692 53.1558L25.3218 53.1546C25.1424 53.1539 24.9526 53.1402 24.7742 53.1573ZM34.1111 53.1472L33.9321 53.1474C33.6548 54.2216 33.0424 54.8387 32.0033 55.1354L32.0066 57.098C32.0071 57.3446 32.0379 57.6737 32.0063 57.9118C32.5463 58.1715 33.061 58.4837 33.5914 58.762L34.9884 59.5121C36.4277 60.2869 36.0323 60.0862 36.0411 61.8384L38.7537 61.8355L38.7794 61.8357C39.157 60.8723 39.5964 60.1586 40.7624 59.9685L40.76 57.2168C40.7596 56.7622 40.7751 56.3011 40.7579 55.8471C40.1468 55.4906 38.9665 54.9556 38.4621 54.5685C38.0703 54.2678 38.2003 53.5765 38.1993 53.1428L34.1111 53.1472ZM24.2079 62.8782C23.9197 63.9173 23.25 64.5313 22.2484 64.8242L22.2528 68.893C22.8063 69.23 23.4056 69.5112 23.9771 69.8183C25.1364 70.4411 24.7539 70.3141 24.7941 71.6191L27.6821 71.6163C28.1508 71.616 28.6305 71.6375 29.098 71.6144C29.3596 71.4082 29.2367 70.1957 31.0174 69.7232L31.0146 67.0827C30.3874 66.7907 29.7856 66.4322 29.1731 66.11L27.8111 65.3787C27.6264 65.2778 27.106 65.0826 27.035 64.8635C26.9617 64.6373 27.0018 63.234 27.0019 62.8752L24.2079 62.8782ZM36.0422 62.8655L36.0449 64.0593C36.0455 64.3432 36.1248 64.7803 35.8949 64.9993C35.7173 65.1686 33.7144 66.1782 33.3802 66.3566C32.9243 66.6 32.4291 66.8245 32.0162 67.1373L32.0169 68.8811C32.017 69.1567 31.9948 69.4489 32.019 69.7221C33.2352 69.998 33.4858 70.6724 33.9519 71.6092L36.7717 71.6062L38.2191 71.6046C38.2102 69.9824 38.0847 70.343 39.4069 69.6146C39.8362 69.3781 40.3333 69.0696 40.7719 68.8731L40.7676 64.8043C39.7566 64.618 39.0085 63.8341 38.7548 62.8626C38.5177 62.9092 37.8334 62.8631 37.5544 62.8634L36.5657 62.866C36.3953 62.8673 36.2105 62.8894 36.0422 62.8655ZM31.483 58.8234L29.6351 59.8281C29.2763 60.0221 28.9045 60.204 28.5576 60.4181C29.3416 60.9042 30.1623 61.3431 30.9679 61.792C31.1537 61.8955 31.3786 62.156 31.5937 62.0431C31.8365 61.8642 32.1309 61.7368 32.3988 61.6002L33.6443 60.9578C33.9433 60.8018 34.2568 60.6486 34.5343 60.4563C33.5117 59.9258 32.5176 59.3297 31.483 58.8234ZM31.4006 51.1775C29.8401 51.349 29.4661 53.336 31.0005 54.0493C31.0392 53.6769 31.1895 53.4494 31.5845 53.4423C31.8975 53.5503 32.0338 53.7215 32.0021 54.0482C33.3577 53.373 33.2079 51.6316 31.8821 51.2279C31.7471 51.1868 31.5393 51.1454 31.4006 51.1775ZM21.6982 60.9554C19.6154 61.1812 19.9643 64.2191 22.2039 63.7771C22.424 63.6772 23.1548 63.2273 23.0464 62.9166C22.2925 62.7278 22.3281 61.9845 23.0587 61.862L23.1157 61.8523C22.8178 61.307 22.3256 60.949 21.6982 60.9554ZM41.1315 60.9345C40.5802 61.0387 40.1561 61.3419 39.892 61.8343C40.8335 61.9196 40.7465 62.9679 39.8931 62.8614C40.0173 63.3193 40.423 63.6409 40.8689 63.7571C42.2146 64.0364 43.1687 62.6734 42.4434 61.5567C42.1789 61.1494 41.6213 60.8743 41.1315 60.9345ZM32.0202 70.8373C31.9016 71.4964 31.1441 71.522 31.0186 70.8384C29.8024 71.3491 29.7554 72.9994 31.0215 73.5088C31.7982 73.8212 32.5821 73.4171 32.8832 72.6551C32.1443 72.5299 32.1399 71.8653 32.8821 71.6104C32.601 71.2676 32.4623 70.9869 32.0202 70.8373Z" fill="#1E223F"/>
<path id="Vector_41" d="M21.7297 49.8981C22.2137 50.1664 22.7214 50.4141 23.1825 50.7201C22.6992 50.9752 22.1703 51.2003 21.7315 51.5269C21.6736 51.5182 20.4207 50.8112 20.246 50.7233C20.7214 50.4228 21.2332 50.1627 21.7297 49.8981Z" fill="#72BAFC"/>
<path id="Vector_42" d="M41.2598 69.7933C41.6725 69.9438 42.471 70.3594 42.827 70.6116C42.4204 70.7504 41.7733 71.141 41.3626 71.3576C41.2036 71.4313 40.0637 70.7367 39.829 70.6149C40.1713 70.3545 40.8543 70.0291 41.2598 69.7933Z" fill="#72BAFC"/>
<path id="Vector_43" d="M21.7078 69.8143C21.7601 69.8207 23.1054 70.5393 23.264 70.6326L21.753 71.443C21.7039 71.4688 20.4589 70.7753 20.2675 70.6358C20.5433 70.397 21.3342 70.0337 21.7078 69.8143Z" fill="#72BAFC"/>
<path id="Vector_44" d="M41.3005 49.8771C41.3659 49.8731 42.6386 50.6039 42.8055 50.699C42.31 50.9791 41.8006 51.2312 41.3023 51.5058L41.2857 51.5113C41.1942 51.5044 39.9534 50.7993 39.8075 50.7023C40.3069 50.4505 40.7805 50.0708 41.3005 49.8771Z" fill="#72BAFC"/>
<path id="Vector_45" d="M43.2945 71.5277L43.3065 71.5306C43.4036 71.6477 43.3336 73.3075 43.3535 73.6151C42.8843 73.8213 42.2848 74.162 41.86 74.4492L41.8443 74.4465C41.7672 74.3561 41.798 72.57 41.7981 72.3171C42.3073 72.0718 42.7913 71.7832 43.2945 71.5277Z" fill="#72BAFC"/>
<path id="Vector_46" d="M23.7422 71.5487C23.7573 71.5818 23.7578 71.5722 23.7574 71.6028L23.7445 73.6922C23.2374 73.9269 22.7414 74.247 22.2583 74.5297C22.1817 74.4315 22.2564 74.1047 22.2567 73.9793L22.2559 72.3381C22.7618 72.0953 23.242 71.8027 23.7422 71.5487Z" fill="#72BAFC"/>
<path id="Vector_47" d="M39.2815 71.532C39.5692 71.6443 40.5592 72.1598 40.775 72.3181L40.7778 73.7512C40.7794 73.9804 40.8125 74.224 40.7773 74.4503C40.3848 74.274 39.6146 73.8542 39.2837 73.6195C39.2493 73.4155 39.2807 73.1718 39.2817 72.9624L39.2815 71.532Z" fill="#72BAFC"/>
<path id="Vector_48" d="M19.6748 71.553C20.1143 71.678 20.7731 72.1266 21.2259 72.3392L21.2282 74.5307C20.8499 74.2974 20.0506 73.8247 19.6771 73.6965L19.6748 71.553Z" fill="#72BAFC"/>
<path id="Vector_49" d="M39.2607 51.5951C39.7454 51.8979 40.2581 52.1515 40.7544 52.4337C40.8027 53.0383 40.7814 54.0581 40.7568 54.6682C40.2407 54.4469 39.7829 54.0857 39.2632 53.8569L39.2607 51.5951Z" fill="#72BAFC"/>
<path id="Vector_50" d="M19.6533 51.6161C20.0306 51.7171 20.8724 52.2181 21.2044 52.4547C21.1421 52.8943 21.1914 54.1151 21.2067 54.5857C21.0303 54.5836 19.9587 53.9231 19.6557 53.8079L19.6533 51.6161Z" fill="#72BAFC"/>
<path id="Vector_51" d="M43.3298 51.5907C43.3513 51.6319 43.3319 53.5651 43.3321 53.7824C42.9923 53.9957 42.1371 54.471 41.779 54.5636L41.7773 54.5647L41.763 54.5544C41.8157 53.8606 41.7777 53.1304 41.7767 52.4326C42.3023 52.1647 42.8097 51.868 43.3298 51.5907Z" fill="#72BAFC"/>
<path id="Vector_52" d="M23.7216 51.6118L23.7503 51.619C23.7865 51.8236 23.7594 52.0754 23.7597 52.2854L23.7619 53.8035C23.2461 54.0458 22.7506 54.3348 22.2376 54.5846L22.224 54.5774C22.1909 54.498 22.2372 54.2109 22.2377 54.1058L22.2353 52.4536C22.5108 52.2158 23.3625 51.7755 23.7216 51.6118Z" fill="#72BAFC"/>
<path id="Vector_53" d="M35.0066 61.4203L35.0234 61.43C35.0001 61.8264 35.0071 62.2234 35.0075 62.6203L35.0097 64.3176C34.2281 64.5713 32.8526 65.5012 32.0144 65.9001L32.0035 65.8999C31.984 65.8713 32.0139 65.3903 32.0139 65.3066L32.0113 63.0211C32.5517 62.6232 34.3363 61.7207 35.0066 61.4203Z" fill="#72BAFC"/>
<path id="Vector_54" d="M28.0234 61.3425C28.3536 61.4746 28.7372 61.7363 29.0523 61.916L31.0095 63.0221L31.0126 65.9012C30.0036 65.4058 29.0444 64.7978 28.0266 64.3251C28.0391 63.9928 28.0267 63.6572 28.0261 63.3245L28.0234 61.3425Z" fill="#0972E3"/>
</g>
<g id="shield-icon">
<path id="Vector_55" d="M13.4994 155.894C14.0029 155.861 14.3882 156.252 14.7958 156.493C17.4096 158.037 20.3185 159.33 23.328 159.852C23.9173 159.954 24.6364 159.893 24.8799 160.578C24.9743 160.844 24.93 162.761 24.9302 163.182L24.9336 165.923C24.9342 166.426 24.953 166.938 24.9269 167.441C24.5974 173.809 20.7941 179.125 15.3663 182.31C14.9372 182.562 14.2209 183.03 13.7822 183.18C13.1243 183.258 10.3199 181.272 9.73462 180.829C5.60242 177.697 2.93181 173.294 2.39687 168.142C2.32703 167.469 2.33517 166.794 2.33446 166.118L2.3296 161.845C2.32544 160.372 2.18323 160.178 3.64152 159.96C6.6679 159.507 10.0802 158.005 12.6919 156.338C12.9467 156.175 13.2032 155.969 13.4994 155.894ZM13.6247 158.208C11.2665 159.701 8.2953 161.023 5.58879 161.691C5.19638 161.788 4.76408 161.835 4.38777 161.981L4.39101 165.319C4.392 166.11 4.37434 166.901 4.44152 167.69C4.74671 171.273 6.33732 174.737 8.87959 177.279C9.77753 178.177 12.394 180.283 13.6489 180.725C13.998 180.622 14.6276 180.187 14.9599 179.975C19.3367 177.189 22.3201 173.074 22.7905 167.838C22.8588 167.077 22.8296 166.305 22.8288 165.542L22.8247 161.961C19.7874 161.285 16.96 160.173 14.2685 158.596C14.0606 158.475 13.8484 158.293 13.6247 158.208Z" fill="#2B465B"/>
<path id="Vector_56" d="M13.6245 158.208C13.8481 158.293 14.0603 158.475 14.2682 158.596C16.9598 160.173 19.7871 161.285 22.8245 161.961L22.8286 165.542C22.8294 166.305 22.8586 167.077 22.7903 167.838C22.3199 173.074 19.3365 177.189 14.9597 179.975C14.6274 180.187 13.9978 180.622 13.6487 180.725C12.3938 180.283 9.77729 178.177 8.87935 177.279C6.33708 174.737 4.74647 171.273 4.44128 167.69C4.3741 166.901 4.39176 166.111 4.39077 165.319L4.38752 161.981C4.76384 161.835 5.19614 161.788 5.58855 161.691C8.29506 161.023 11.2663 159.701 13.6245 158.208ZM13.6267 160.267C13.3777 160.425 13.0099 160.595 12.7973 160.764C11.2621 161.536 7.95195 163.124 6.24696 163.371L6.24933 166.018C6.25012 166.693 6.20904 167.396 6.34442 168.061C6.36247 168.463 6.50743 169.335 6.62208 169.727C7.36176 173.06 9.87405 176.458 12.8161 178.244C13.0495 178.422 13.3315 178.565 13.5834 178.716C13.8762 178.54 14.2115 178.394 14.4753 178.176C14.651 178.09 14.8178 177.976 14.9824 177.871C17.8124 176.057 19.9492 172.983 20.6647 169.712C20.7833 169.425 20.9155 168.41 20.9697 168.046C21.1082 167.358 21.067 166.605 21.0662 165.907L21.0632 163.355C19.8593 163.239 16.9448 161.983 15.8689 161.478C15.3915 161.254 14.9388 160.975 14.4565 160.762C14.1844 160.591 13.9062 160.426 13.6267 160.267Z" fill="#18BB9B"/>
<path id="Vector_57" d="M13.6269 160.267C13.9065 160.426 14.1847 160.591 14.4568 160.762C14.9391 160.975 15.3917 161.254 15.8692 161.478C16.945 161.983 19.8595 163.239 21.0634 163.355L21.0664 165.907C21.0672 166.605 21.1084 167.358 20.97 168.046C20.9157 168.41 20.7835 169.425 20.6649 169.712C19.9495 172.983 17.8127 176.057 14.9826 177.871C14.8181 177.976 14.6512 178.09 14.4755 178.176C14.2118 178.394 13.8764 178.54 13.5837 178.716C13.3317 178.565 13.0497 178.422 12.8163 178.244C9.87429 176.458 7.362 173.06 6.62233 169.727C6.50768 169.335 6.36271 168.463 6.34467 168.061C6.20929 167.396 6.25037 166.693 6.24957 166.018L6.24721 163.371C7.95219 163.124 11.2623 161.536 12.7975 160.764C13.0102 160.595 13.3779 160.425 13.6269 160.267ZM12.7975 160.764C11.2623 161.536 7.95219 163.124 6.24721 163.371L6.24957 166.018C6.25037 166.693 6.20929 167.396 6.34467 168.061C6.62248 168.074 6.90301 168.057 7.18143 168.058L9.52023 168.058C9.73246 166.465 11.1985 164.818 12.8017 164.615C12.8974 163.465 12.7852 161.953 12.7975 160.764ZM14.4568 160.762C14.4404 160.981 14.4553 161.201 14.4568 161.42L14.4588 163.906C14.4583 164.14 14.4459 164.38 14.4609 164.613C16.1331 164.761 17.6054 166.435 17.891 168.049C18.9167 168.046 19.9449 168.03 20.97 168.046C21.1084 167.358 21.0672 166.605 21.0664 165.907L21.0634 163.355C19.8595 163.239 16.945 161.983 15.8692 161.478C15.3917 161.254 14.9391 160.975 14.4568 160.762ZM6.62233 169.727C7.362 173.06 9.87429 176.458 12.8163 178.244C12.7825 176.637 12.9302 174.749 12.8109 173.191C11.3062 172.749 9.53205 171.435 9.52202 169.724C9.26953 169.705 9.01653 169.723 8.76364 169.724L7.38553 169.727C7.28052 169.728 6.63855 169.705 6.62233 169.727ZM17.994 169.714C17.528 171.789 16.386 172.66 14.4702 173.19L14.4772 177.66C14.4788 177.829 14.4968 178.008 14.4755 178.176C14.6512 178.09 14.8181 177.976 14.9826 177.871C17.8127 176.057 19.9495 172.983 20.6649 169.712L20.6368 169.692C20.3355 169.738 20.0068 169.713 19.7013 169.713L17.994 169.714Z" fill="#9DC7D4"/>
<path id="Vector_58" d="M12.8017 164.615C12.7838 165.76 12.8043 166.909 12.8054 168.054L9.5203 168.058C9.73253 166.465 11.1985 164.818 12.8017 164.615Z" fill="#F06564"/>
<path id="Vector_59" d="M9.52246 169.724L12.8076 169.72L12.8113 173.191C11.3067 172.749 9.53249 171.435 9.52246 169.724Z" fill="#F06564"/>
<path id="Vector_60" d="M14.4607 164.613C16.1329 164.761 17.6052 166.435 17.8908 168.049L14.4644 168.053C14.4426 166.907 14.4766 165.759 14.4607 164.613Z" fill="#F06564"/>
<path id="Vector_61" d="M14.4668 169.718C14.8501 169.698 15.2416 169.717 15.6261 169.717L17.9944 169.714C17.5284 171.789 16.3863 172.66 14.4705 173.19L14.4668 169.718Z" fill="#F06564"/>
</g>
<g id="rain-icon">
<path id="Vector_62" d="M73.9666 14.9455C74.4138 14.8893 74.5869 15.2186 74.818 15.5166C75.4127 16.2833 75.9757 17.0912 76.5133 17.8998C77.886 19.9648 79.3745 22.4965 80.1671 24.8513C80.3417 25.3699 80.5259 25.8698 80.5304 26.424C80.5588 29.9305 77.689 33.0456 74.1388 33.0733C70.7678 33.1873 68.0592 30.5127 67.6263 27.2667C67.4544 25.9784 67.8057 25.0751 68.2962 23.897C69.1801 21.7739 70.2936 19.8943 71.5479 17.9804C72.1513 17.0598 72.7748 16.1364 73.4507 15.2662C73.5911 15.0855 73.7357 14.9759 73.9666 14.9455Z" fill="url(#paint1_linear_21_2)"/>
<path id="Vector_63" d="M74.0527 16.7604C74.1699 16.8751 74.2538 17.0254 74.3489 17.1581C75.9739 19.4253 79.0888 24.2161 79.1083 26.6546C79.1295 29.3 76.7026 31.7143 74.0527 31.7208C71.4062 31.7196 69.3346 29.6527 69.0026 27.0712C68.8746 26.076 69.328 25.0711 69.7115 24.1785C70.7748 21.704 72.4003 18.9109 74.0527 16.7604Z" fill="url(#paint2_linear_21_2)"/>
<path id="Vector_64" d="M77.4589 26.2525C78.1403 26.183 78.165 27.0206 78.0692 27.4993C77.6747 29.47 76.0606 30.6708 74.0877 30.6601C73.5742 30.6599 73.1831 30.102 73.5136 29.6582C73.7729 29.31 74.2073 29.3905 74.5846 29.3364C75.6 29.1907 76.4927 28.3835 76.7457 27.3917C76.8821 26.8568 76.7548 26.3454 77.4589 26.2525Z" fill="#3596F3"/>
</g>
<g id="ai-icon 1">
<path id="Vector_65" d="M212.765 17.5837C212.071 17.3097 211.471 16.8925 211.168 16.1866C209.876 13.1697 214.512 11.1983 215.744 14.342C216.293 15.7401 215.452 17.2245 214.037 17.5837V21.2021C214.781 21.1494 215.265 21.3244 215.921 21.666C216.481 20.9213 217.292 20.265 217.953 19.5944C216.888 17.5513 218.641 15.2927 220.855 16.0038C222.171 16.4265 222.859 17.9116 222.412 19.2024C221.879 20.7394 220.214 21.1529 218.846 20.4461C218.311 21.0842 217.193 21.9498 216.812 22.5659L216.788 22.6046C216.783 22.6124 216.778 22.6204 216.774 22.6282C217.011 23.8324 217.071 23.8734 217.066 25.2276H219.752C220.524 22.8805 223.353 22.6928 224.363 24.718C225.138 26.2733 224.176 27.7489 222.656 28.2733C223.985 28.6229 224.908 29.9404 224.539 31.3148C223.889 33.7309 220.533 33.8839 219.752 31.3325H217.066C217.065 32.2163 217.18 33.115 216.774 33.9319C217.412 34.4904 217.976 35.1564 218.588 35.7478C220.626 34.405 223.083 36.0094 222.593 38.2896C222.293 39.6863 220.905 40.5609 219.513 40.2489C218.091 39.93 217.071 38.1447 217.807 36.8041C217.243 36.1133 216.564 35.5049 215.921 34.8892C215.341 35.3782 214.777 35.4817 214.037 35.4659C214.048 36.4547 214.035 37.4441 214.037 38.4328C217.44 39.3808 215.779 44.3032 212.61 43.3435C210.222 42.6205 210.307 38.9422 212.765 38.4328C212.793 37.4471 212.764 36.4528 212.765 35.4659H210.501C209.308 36.6913 208.838 37.379 207.382 38.497L207.385 44.0242C207.388 44.2472 207.417 44.505 207.381 44.7252C207.291 45.2814 206.305 45.6291 206.123 44.5776C205.991 44.4963 204.941 44.5778 204.7 44.5779L198.441 44.5776C198.367 45.5469 197.217 45.4989 197.122 44.6804C196.999 43.6201 197.129 42.0387 197.111 40.9227L194.805 40.9233C193.169 40.9234 191.955 40.9155 190.706 39.6657C189.534 38.4939 189.501 37.403 189.502 35.8966L189.504 33.9319C188.431 33.9347 187.318 34.1083 186.492 33.277C185.215 31.9914 185.887 30.7625 186.702 29.5275C187.222 28.7409 187.797 27.9263 188.226 27.0875C187.866 19.6956 194.154 13.3745 201.627 14.4704C205.727 15.0717 208.941 17.5863 210.842 21.2021H212.765V17.5837ZM217.066 26.4703C217.022 26.8278 217.066 27.2333 217.066 27.5971L217.066 30.0829C217.957 30.1155 218.859 30.0822 219.752 30.0829C219.887 29.637 220.087 29.3108 220.405 28.9713C220.748 28.6352 221.157 28.4 221.621 28.2733C220.644 27.9466 220.114 27.4008 219.752 26.4703C218.859 26.4695 217.958 26.4421 217.066 26.4703Z" fill="#031725"/>
<path id="Vector_66" d="M219.974 17.144C221.255 16.9764 222.052 18.8309 220.314 19.5944C218.329 19.4188 218.535 17.4022 219.974 17.144Z" fill="#F2AD2B"/>
<path id="Vector_67" d="M213.265 14.0041C214.896 13.9086 215.204 15.9697 213.693 16.4134C212.114 16.6819 211.649 14.3758 213.265 14.0041Z" fill="#F2AD2B"/>
<path id="Vector_68" d="M222.088 29.4759C223.714 29.4477 223.739 31.8414 222.196 31.9081C220.693 32.0914 220.419 29.681 222.088 29.4759Z" fill="#F2AD2B"/>
<path id="Vector_69" d="M222.004 24.6218C223.172 24.3121 224.177 26.4227 222.287 27.0876C220.612 27.0604 220.427 24.8402 222.004 24.6218Z" fill="#F2AD2B"/>
<path id="Vector_70" d="M219.974 36.5354C221.557 36.3571 221.92 38.6086 220.315 39.0338C218.658 39.2421 218.22 36.8813 219.974 36.5354Z" fill="#F2AD2B"/>
<path id="Vector_71" d="M213.392 39.6439C213.625 39.5754 213.916 39.7069 214.101 39.8417C215.113 40.5762 214.604 42.0234 213.392 42.1657C211.821 42.2868 211.586 39.675 213.392 39.6439Z" fill="#F2AD2B"/>
<path id="Vector_72" d="M209.277 22.4237C209.517 22.4022 209.776 22.4211 210.018 22.4218L213.26 22.4223C216.119 22.4204 215.805 23.3668 215.806 25.7083L215.806 31.3004C215.805 32.5625 216.047 33.8059 214.497 34.2368C214.211 34.2619 213.908 34.2389 213.62 34.2384L210.159 34.239C208.011 34.2443 207.906 33.6131 207.905 31.5521L207.905 25.7428C207.905 24.4781 207.609 22.7249 209.277 22.4237Z" fill="#048BEB"/>
<path id="Vector_73" d="M209.513 24.6218C210.357 24.5715 210.715 25.609 209.84 25.8768C208.986 26.0148 208.738 25.0293 209.513 24.6218Z" fill="#031725"/>
<path id="Vector_74" d="M209.513 31.1027C210.386 31.0089 210.68 32.0599 209.84 32.3752C208.964 32.4995 208.724 31.4646 209.513 31.1027Z" fill="#031725"/>
<path id="Vector_75" d="M209.513 27.9024C210.393 27.7901 210.685 28.878 209.84 29.1645C208.962 29.2936 208.652 28.2336 209.513 27.9024Z" fill="#031725"/>
<path id="Vector_76" d="M212.124 24.6218C212.545 24.622 213.533 24.5282 213.864 24.7378C214.399 25.0757 214.203 25.7719 213.624 25.8768C213.301 25.8783 212.134 25.9402 211.893 25.8144C211.266 25.4866 211.55 24.7758 212.124 24.6218Z" fill="#031725"/>
<path id="Vector_77" d="M212.124 27.9024C212.535 27.9005 213.422 27.8307 213.781 27.9793C214.439 28.2515 214.207 28.9815 213.625 29.1645C213.027 29.1791 211.745 29.3466 211.57 28.694C211.459 28.276 211.728 27.9806 212.124 27.9024Z" fill="#031725"/>
<path id="Vector_78" d="M212.318 31.1027C212.739 31.0997 213.658 31.0041 213.983 31.2517C214.469 31.6208 214.148 32.3414 213.528 32.3752C213.183 32.3748 212.357 32.4207 212.07 32.3649C211.382 32.2307 211.278 31.1539 212.318 31.1027Z" fill="#031725"/>
<path id="Vector_79" d="M198.442 44.5776L198.442 41.7185C198.443 40.0337 198.731 39.6382 196.749 39.6412L194.728 39.6448C194.172 39.6459 193.562 39.6986 193.019 39.5665C189.318 38.6672 191.443 33.6266 190.57 32.8117C189.904 32.1899 187.199 33.4329 187.072 31.7181C187.033 31.1858 188.287 29.4391 188.631 28.915C189.744 27.2175 189.406 27.9788 189.519 26.0308C189.55 25.4947 189.579 24.9614 189.67 24.4314C190.612 18.9448 195.949 14.9631 201.488 15.7413C204.494 16.1637 208.025 18.3794 209.351 21.2021C207.461 21.1063 206.59 22.8396 206.637 24.5322C206.126 24.5306 204.804 24.3671 204.411 24.7351C204.004 25.1154 204.33 25.6909 204.801 25.7827C205.195 25.8592 206.18 25.8053 206.637 25.8032V27.4115H202.264L202.265 20.8691C202.264 18.6222 201.568 18.7938 199.582 18.7927L196.801 18.7936C194.761 18.7979 195.139 20.5198 195.146 21.975C195.155 23.7935 196.591 23.621 197.909 23.6348C197.905 24.2125 197.731 25.216 198.577 25.2095C199.411 25.2032 199.219 23.8198 199.173 23.2899C199.058 21.9676 197.355 22.3303 196.452 22.3255V20.0634H200.98L200.978 27.3175C200.976 27.807 200.815 28.612 201.496 28.6917C201.968 28.7469 202.659 28.7026 203.146 28.7024L206.637 28.7012V30.6357L199.797 30.6337C197.704 30.6254 197.712 31.3263 197.722 33.1921H194.932L194.933 31.7514C194.934 31.5435 194.962 31.2855 194.922 31.0831C194.832 30.6308 194.153 30.4522 193.838 30.7788C193.512 31.1161 193.635 31.7871 193.638 32.2067C193.652 34.6695 194.215 34.4631 196.444 34.4676C197.136 34.4691 198.168 34.6597 198.678 34.0689C199.253 33.4029 198.688 31.9713 199.187 31.9216C199.478 31.8926 199.784 31.9079 200.077 31.9078L206.637 31.9081C206.616 33.8125 207.004 34.8408 208.876 35.4311C207.466 36.9266 205.925 38.114 204.012 38.8767C203.707 38.9982 203.097 39.0993 202.887 39.3705C202.525 39.8379 202.899 40.4502 203.462 40.3971C204.383 40.3104 205.311 39.6294 206.124 39.2652L206.124 42.8456C206.125 43.3931 206.162 44.0401 206.124 44.5776C205.992 44.4964 204.941 44.5778 204.701 44.5779L198.442 44.5776Z" fill="#2EC4C4"/>
<path id="Vector_80" d="M201.551 33.7933C202.056 33.7563 202.337 33.9949 202.351 34.5079C202.423 37.2921 201.194 36.8066 198.976 36.8041C198.552 36.7862 198.214 36.5818 198.206 36.1128C198.191 35.174 200.493 35.4643 201.069 35.4659C201.066 34.8472 200.855 34.0911 201.551 33.7933Z" fill="#031725"/>
<path id="Vector_81" d="M193.447 21.8475C194.111 21.8105 194.917 22.1949 194.396 22.8611C194.168 23.1535 193.781 23.1298 193.447 23.1713C193.419 23.7915 193.417 24.4521 193.447 25.0711C193.918 25.126 194.427 25.0511 194.904 25.0648C195.66 25.0865 195.855 25.8613 195.29 26.2853C194.829 26.515 193.276 26.3976 192.846 26.1018C192.143 25.6172 192.145 24.9642 192.146 24.2048C192.147 23.1342 192.134 22.0483 193.447 21.8475Z" fill="#031725"/>
</g>
<g id="Group">
<path id="Vector_82" fill-rule="evenodd" clip-rule="evenodd" d="M229.424 68.0648C229.086 67.6165 228.9 67.0678 228.9 66.5C228.9 65.8104 229.174 65.1491 229.662 64.6615C230.149 64.1739 230.81 63.9 231.5 63.9C232.068 63.9 232.617 64.0858 233.065 64.4236L235.023 62.465C235.463 62.0252 235.446 61.2975 234.917 60.9705C233.898 60.3412 232.717 60 231.5 60C229.776 60 228.123 60.6848 226.904 61.9038C225.685 63.1228 225 64.7761 225 66.5C225 67.7168 225.341 68.8984 225.971 69.9169C226.297 70.446 227.025 70.4632 227.465 70.0234L229.424 68.0648ZM237.029 63.0831C236.703 62.554 235.975 62.5368 235.535 62.9766L233.576 64.9352C233.914 65.3835 234.1 65.9322 234.1 66.5C234.1 67.1896 233.826 67.8509 233.338 68.3385C232.851 68.8261 232.19 69.1 231.5 69.1C230.932 69.1 230.383 68.9142 229.935 68.5764L227.977 70.535C227.537 70.9748 227.554 71.7025 228.083 72.0295C229.102 72.6588 230.283 73 231.5 73C233.224 73 234.877 72.3152 236.096 71.0962C237.315 69.8772 238 68.2239 238 66.5C238 65.2832 237.659 64.1016 237.029 63.0831Z" fill="url(#paint3_radial_21_2)"/>
<g id="Mask group">
<mask id="mask0_21_2" style="mask-type:luminance" maskUnits="userSpaceOnUse" x="225" y="60" width="13" height="13">
<g id="Group_2">
<path id="Vector_83" fill-rule="evenodd" clip-rule="evenodd" d="M229.424 68.0648C229.086 67.6165 228.9 67.0678 228.9 66.5C228.9 65.8104 229.174 65.1491 229.662 64.6615C230.149 64.1739 230.81 63.9 231.5 63.9C232.068 63.9 232.617 64.0858 233.065 64.4236L235.023 62.465C235.463 62.0252 235.446 61.2975 234.917 60.9705C233.898 60.3412 232.717 60 231.5 60C229.776 60 228.123 60.6848 226.904 61.9038C225.685 63.1228 225 64.7761 225 66.5C225 67.7168 225.341 68.8984 225.971 69.9169C226.297 70.446 227.025 70.4632 227.465 70.0234L229.424 68.0648ZM237.029 63.0831C236.703 62.554 235.975 62.5368 235.535 62.9766L233.576 64.9352C233.914 65.3835 234.1 65.9322 234.1 66.5C234.1 67.1896 233.826 67.8509 233.338 68.3385C232.851 68.8261 232.19 69.1 231.5 69.1C230.932 69.1 230.383 68.9142 229.935 68.5764L227.977 70.535C227.537 70.9748 227.554 71.7025 228.083 72.0295C229.102 72.6588 230.283 73 231.5 73C233.224 73 234.877 72.3152 236.096 71.0962C237.315 69.8772 238 68.2239 238 66.5C238 65.2832 237.659 64.1016 237.029 63.0831Z" fill="white"/>
</g>
</mask>
<g mask="url(#mask0_21_2)">
<path id="Vector_84" d="M233.576 64.9352L233.52 64.8786L233.47 64.9278L233.512 64.9833L233.576 64.9352ZM229.935 68.5764L229.983 68.5125L229.928 68.4706L229.878 68.5198L229.935 68.5764ZM229.487 68.0167C229.16 67.5822 228.98 67.0504 228.98 66.5H228.82C228.82 67.0853 229.011 67.6509 229.36 68.1129L229.487 68.0167ZM228.98 66.5C228.98 65.8316 229.245 65.1907 229.718 64.7181L229.605 64.605C229.102 65.1075 228.82 65.7892 228.82 66.5H228.98ZM229.718 64.7181C230.19 64.2455 230.831 63.98 231.5 63.98V63.82C230.789 63.82 230.107 64.1024 229.605 64.605L229.718 64.7181ZM231.5 63.98C232.05 63.98 232.582 64.16 233.016 64.4875L233.113 64.3597C232.651 64.0115 232.085 63.82 231.5 63.82V63.98ZM235.478 62.92L233.52 64.8786L233.633 64.9917L235.591 63.0331L235.478 62.92ZM233.512 64.9833C233.84 65.4178 234.02 65.9496 234.02 66.5H234.18C234.18 65.9147 233.988 65.3491 233.64 64.887L233.512 64.9833ZM234.02 66.5C234.02 67.1684 233.754 67.8093 233.282 68.2819L233.395 68.395C233.897 67.8924 234.18 67.2108 234.18 66.5H234.02ZM233.282 68.2819C232.809 68.7545 232.168 69.02 231.5 69.02V69.18C232.211 69.18 232.892 68.8976 233.395 68.395L233.282 68.2819ZM231.5 69.02C230.949 69.02 230.418 68.84 229.983 68.5125L229.887 68.6402C230.349 68.9885 230.914 69.18 231.5 69.18V69.02ZM229.878 68.5198L227.92 70.4784L228.033 70.5915L229.992 68.6329L229.878 68.5198ZM229.423 68.0648L229.537 68.1779L229.635 68.0796L229.551 67.9685L229.423 68.0648ZM233.065 64.4236L232.968 64.5514L233.079 64.635L233.178 64.5367L233.065 64.4236ZM233.576 64.9352L233.463 64.822L233.365 64.9204L233.448 65.0314L233.576 64.9352ZM229.935 68.5764L230.031 68.4486L229.92 68.3649L229.822 68.4632L229.935 68.5764ZM228.74 66.5C228.74 67.1028 228.937 67.6852 229.296 68.1611L229.551 67.9685C229.234 67.5478 229.06 67.0329 229.06 66.5H228.74ZM229.548 64.5484C229.031 65.066 228.74 65.768 228.74 66.5H229.06C229.06 65.8528 229.317 65.2322 229.774 64.7746L229.548 64.5484ZM231.5 63.74C230.768 63.74 230.066 64.0308 229.548 64.5484L229.774 64.7746C230.232 64.317 230.853 64.06 231.5 64.06V63.74ZM233.161 64.2959C232.685 63.9372 232.103 63.74 231.5 63.74V64.06C232.033 64.06 232.548 64.2343 232.968 64.5514L233.161 64.2959ZM234.91 62.3519L232.952 64.3105L233.178 64.5367L235.136 62.5781L234.91 62.3519ZM234.833 61.1066C235.257 61.3687 235.292 61.9701 234.91 62.3519L235.136 62.5781C235.634 62.0803 235.635 61.2263 235.001 60.8344L234.833 61.1066ZM231.5 60.1599C232.687 60.1599 233.839 60.4927 234.833 61.1066L235.001 60.8344C233.957 60.1896 232.747 59.84 231.5 59.84V60.1599ZM227.017 62.0169C228.206 60.8279 229.818 60.1599 231.5 60.1599V59.84C229.733 59.84 228.039 60.5417 226.791 61.7907L227.017 62.0169ZM225.16 66.5C225.16 64.8185 225.828 63.2059 227.017 62.0169L226.791 61.7907C225.542 63.0397 224.84 64.7337 224.84 66.5H225.16ZM226.106 69.8328C225.493 68.8393 225.16 67.6868 225.16 66.5H224.84C224.84 67.7467 225.189 68.9574 225.834 70.001L226.106 69.8328ZM227.352 69.9103C226.97 70.2921 226.368 70.2569 226.106 69.8328L225.834 70.001C226.226 70.6351 227.08 70.6343 227.578 70.1365L227.352 69.9103ZM229.31 67.9517L227.352 69.9103L227.578 70.1365L229.537 68.1779L229.31 67.9517ZM235.648 63.0897C236.03 62.7078 236.631 62.7431 236.893 63.1672L237.165 62.999C236.774 62.3649 235.919 62.3657 235.422 62.8634L235.648 63.0897ZM233.689 65.0483L235.648 63.0897L235.422 62.8634L233.463 64.822L233.689 65.0483ZM234.26 66.5C234.26 65.8972 234.063 65.3148 233.704 64.8389L233.448 65.0314C233.766 65.4521 233.94 65.9671 233.94 66.5H234.26ZM233.451 68.4516C233.969 67.934 234.26 67.232 234.26 66.5H233.94C233.94 67.1471 233.683 67.7678 233.225 68.2254L233.451 68.4516ZM231.5 69.26C232.232 69.26 232.934 68.9692 233.451 68.4516L233.225 68.2254C232.768 68.6829 232.147 68.94 231.5 68.94V69.26ZM229.839 68.7041C230.315 69.0628 230.897 69.26 231.5 69.26V68.94C230.967 68.94 230.452 68.7657 230.031 68.4486L229.839 68.7041ZM228.089 70.6481L230.048 68.6895L229.822 68.4632L227.863 70.4218L228.089 70.6481ZM228.167 71.8934C227.743 71.6313 227.708 71.0299 228.089 70.6481L227.863 70.4218C227.365 70.9196 227.365 71.7737 227.999 72.1655L228.167 71.8934ZM231.5 72.84C230.313 72.84 229.16 72.5073 228.167 71.8934L227.999 72.1655C229.042 72.8104 230.253 73.16 231.5 73.16V72.84ZM235.983 70.9831C234.794 72.172 233.181 72.84 231.5 72.84V73.16C233.266 73.16 234.96 72.4583 236.209 71.2093L235.983 70.9831ZM237.84 66.5C237.84 68.1815 237.172 69.7941 235.983 70.9831L236.209 71.2093C237.458 69.9603 238.16 68.2663 238.16 66.5H237.84ZM236.893 63.1672C237.507 64.1607 237.84 65.3132 237.84 66.5H238.16C238.16 65.2533 237.81 64.0426 237.165 62.999L236.893 63.1672Z" fill="url(#paint4_radial_21_2)"/>
</g>
</g>
</g>
<g id="Assets / Logomark">
<path id="Vector_85" d="M29.1644 222.476C29.4196 222.989 29.4383 223.56 29.2624 224.073L27.8308 228.049C27.7484 228.271 27.6292 228.481 27.4766 228.67C27.2769 228.918 27.02 229.129 26.7138 229.281C26.4076 229.434 26.0928 229.495 25.7748 229.505C25.5252 229.513 25.2668 229.495 25.0342 229.423L21.7187 228.392C21.8049 228.019 22.0579 227.682 22.4365 227.493C22.7185 227.353 23.0243 227.318 23.3062 227.374L25.4151 228.029C25.6204 228.086 25.8481 228.069 26.0582 227.964C26.2683 227.86 26.4204 227.687 26.4986 227.488L27.8348 223.777C27.8971 223.578 27.8866 223.359 27.7882 223.161C27.6899 222.964 27.5213 222.823 27.3247 222.752L23.548 221.578C23.3453 221.525 23.1196 221.543 22.9131 221.645C22.7065 221.748 22.556 221.917 22.4767 222.111L19.1324 231.399C19.0917 231.511 18.9665 231.573 18.8524 231.538C18.8029 231.523 18.7636 231.491 18.7383 231.452L18.1437 230.257C18.0944 230.158 18.0892 230.048 18.1208 229.948L18.7046 228.327C18.7681 228.126 18.758 227.906 18.6591 227.707C18.5549 227.498 18.3732 227.352 18.1616 227.286L16.5574 226.787C16.5471 226.784 16.5368 226.78 16.5268 226.776C16.4363 226.739 16.3588 226.671 16.3125 226.578L16.3118 226.577L16.3112 226.576L15.7181 225.384C15.7017 225.34 15.7004 225.29 15.718 225.241C15.7585 225.129 15.8841 225.066 15.9983 225.102L18.6601 225.929C18.8692 225.991 19.1044 225.975 19.3197 225.868C19.5349 225.761 19.6899 225.582 19.7663 225.378L21.1428 221.555C21.2252 221.335 21.3436 221.127 21.4947 220.94C21.6945 220.692 21.9514 220.481 22.2577 220.329C22.564 220.176 22.8871 220.099 23.2052 220.088C23.4478 220.081 23.6874 220.112 23.9142 220.181L27.9492 221.435C28.1701 221.508 28.3779 221.615 28.5634 221.754C28.8108 221.94 29.0185 222.183 29.1644 222.476Z" fill="#50A3FB"/>
</g>
<g id="coin-icon">
<path id="Vector_86" d="M247.678 194.615C248.077 195.147 247.957 195.255 248.702 195.696C247.863 196.143 247.959 196.512 247.68 196.739C247.41 196.25 247.134 195.937 246.621 195.698C247.154 195.435 247.394 195.121 247.678 194.615Z" fill="#3C4561"/>
<path id="Vector_87" d="M227.496 180.213C227.556 180.237 227.676 180.403 227.73 180.458C227.953 180.685 228.182 180.902 228.423 181.11C228.139 181.42 227.801 181.709 227.498 182.004L227.468 182.01C227.146 181.719 226.864 181.394 226.532 181.112C226.846 180.812 227.148 180.472 227.496 180.213Z" fill="#3C4561"/>
<path id="Vector_88" d="M240.676 178.277C244.967 178.094 248.716 181.681 248.944 185.924C249.152 189.815 246.544 193.362 242.723 194.204C242.169 194.326 241.615 194.38 241.05 194.41C240.924 194.812 240.816 195.212 240.668 195.608C239.459 198.832 236.486 201.106 233.045 201.432C232.469 201.486 231.904 201.455 231.327 201.466C231.171 201.426 231.012 201.407 230.852 201.383C228.084 200.978 225.526 199.183 224.207 196.71C220.68 190.094 226.237 182.29 233.535 183.396C234.651 180.465 237.495 178.305 240.676 178.277Z" fill="#3C4561"/>
<path id="Vector_89" d="M236.239 181.057C236.483 181.29 236.682 181.552 236.95 181.764C236.221 182.412 235.813 183.026 235.418 183.902L235.293 183.851C235.03 183.749 234.761 183.669 234.489 183.594C234.802 182.743 235.505 181.606 236.239 181.057Z" fill="#FAA424"/>
<path id="Vector_90" d="M246.41 188.986C246.769 189.017 247.134 189.011 247.491 189.059C247.182 189.886 246.444 190.936 245.78 191.52C245.7 191.603 245.613 191.677 245.524 191.753C245.335 191.484 245.131 191.226 244.935 190.963C245.558 190.348 246.022 189.774 246.41 188.986Z" fill="#FAA424"/>
<path id="Vector_91" d="M245.608 181.047C246.466 181.813 247.229 182.877 247.583 183.978L246.883 183.979C246.76 183.983 246.638 183.982 246.516 183.98C246.1 183.048 245.624 182.462 244.892 181.755C245.112 181.509 245.362 181.267 245.608 181.047Z" fill="#FAA424"/>
<path id="Vector_92" d="M246.825 184.919C247.169 184.917 247.516 184.945 247.859 184.918C248.067 186.133 248.034 186.907 247.804 188.112C247.459 188.088 247.118 188.066 246.772 188.072C247.037 186.827 247.049 186.17 246.825 184.919Z" fill="#FAA424"/>
<path id="Vector_93" d="M241.371 179.248C242.557 179.256 243.9 179.836 244.891 180.465C244.739 180.606 244.605 180.747 244.48 180.913C244.351 180.989 244.264 181.108 244.171 181.222C243.327 180.656 242.383 180.336 241.372 180.252L241.371 179.248Z" fill="#FAA424"/>
<path id="Vector_94" d="M244.181 191.521C244.339 191.7 244.591 192.128 244.737 192.346C243.677 193.112 242.888 193.107 241.792 193.422L241.763 193.43L241.224 193.431C241.234 193.104 241.273 192.782 241.253 192.454C242.664 192.337 243.028 192.066 244.181 191.521Z" fill="#FAA424"/>
<path id="Vector_95" d="M240.308 179.249C240.604 179.188 240.455 179.963 240.456 180.253C239.625 180.236 238.308 180.725 237.641 181.229C237.561 181.122 237.474 181.021 237.385 180.92L236.949 180.473C237.677 179.83 239.351 179.283 240.308 179.249Z" fill="#FAA424"/>
<path id="Vector_96" d="M236.243 184.217L236.259 184.195C236.468 183.91 236.61 183.575 236.817 183.284C239.499 179.521 245.285 181.044 246.003 185.577C246.477 188.568 244.241 191.27 241.252 191.525C241.15 190.971 241.026 190.33 240.938 189.783C240.342 188.444 240.035 187.734 239.089 186.506C238.526 185.848 237.867 185.265 237.146 184.786C236.849 184.589 236.518 184.446 236.243 184.217Z" fill="#FED974"/>
<path id="Vector_97" d="M239.088 186.506C239.515 185.841 239.913 185.021 240.274 184.312C240.761 183.354 240.8 182.765 241.428 183.919C241.8 184.603 242.168 185.475 242.573 186.108C242.853 186.107 243.427 186.036 243.627 186.247C244.006 186.645 243.159 187.031 242.911 187.203C242.64 187.392 242.408 187.625 242.081 187.711C241.664 188.138 241.266 189.207 240.938 189.783C240.342 188.444 240.035 187.734 239.088 186.506Z" fill="#E7E7E9"/>
<path id="Vector_98" d="M240.464 187.713L241.467 187.712C241.379 187.918 241.255 188.107 241.164 188.313C241.102 188.42 241.043 188.53 240.984 188.638C240.837 188.318 240.656 188.009 240.464 187.713Z" fill="#3C4561"/>
<path id="Vector_99" d="M240.932 184.056C241.037 184.155 242.311 186.686 242.438 186.976C242.32 187.049 242.202 187.119 242.08 187.184C241.738 187.206 241.385 187.185 241.042 187.185L239.871 187.186C239.753 187.048 239.651 186.883 239.546 186.735C240 185.917 240.551 184.912 240.932 184.056Z" fill="#3C4561"/>
<path id="Vector_100" d="M231.792 184.221C233.56 184.194 235.073 184.543 236.567 185.515C243.116 189.774 240.694 199.951 232.555 200.551C232.095 200.552 231.638 200.553 231.18 200.498C227.422 200.051 224.448 196.923 224.096 193.165C223.646 188.362 227.108 184.653 231.792 184.221Z" fill="#FBEDC5"/>
<path id="Vector_101" d="M231.679 186.213C233.043 186.182 234.216 186.4 235.392 187.123C238.323 188.926 239.209 192.852 237.399 195.763C236.535 197.154 235.002 198.237 233.376 198.516C233.161 198.553 232.94 198.57 232.728 198.621L232.711 198.625C232.425 198.627 232.135 198.637 231.849 198.619C228.882 198.428 226.394 196.14 226.039 193.162C225.609 189.552 228.107 186.631 231.679 186.213Z" fill="#3C4561"/>
<path id="Vector_102" d="M232.01 187.159L232.063 187.154C232.296 187.131 232.544 187.15 232.777 187.175C236.978 187.642 238.867 192.706 236.135 195.921C235.167 197.06 233.894 197.578 232.446 197.695C229.426 197.742 226.984 195.526 226.929 192.469C226.879 189.641 229.174 187.205 232.01 187.159Z" fill="#85A7E1"/>
<path id="Vector_103" d="M231.92 188.323C234.09 188.149 236.031 189.879 236.238 192.019C236.469 194.398 234.813 196.325 232.445 196.548C230.067 196.606 228.121 194.905 228.075 192.496C228.033 190.329 229.704 188.359 231.92 188.323Z" fill="#E7E7E9"/>
<path id="Vector_104" d="M232.012 188.595C232.651 188.528 232.613 189.037 232.611 189.523C232.905 189.523 233.773 189.444 233.974 189.649C234.182 189.861 234.117 190.283 233.844 190.41C233.679 190.486 233.453 190.462 233.275 190.462L232.22 190.465C231.862 190.466 231.366 190.398 231.085 190.676C230.727 191.032 230.864 191.724 231.356 191.882C231.825 192.033 232.6 191.842 233.162 191.967C234.894 192.353 235.013 195.266 232.55 195.266C232.553 195.635 232.593 196.043 232.142 196.126C231.629 196.094 231.626 195.682 231.634 195.267C231.317 195.268 230.692 195.309 230.417 195.246C229.974 195.146 229.919 194.53 230.344 194.369C230.501 194.31 230.721 194.338 230.889 194.338L232.209 194.338C232.434 194.339 232.698 194.373 232.917 194.325C233.647 194.167 233.702 193.111 232.981 192.904C232.182 192.674 231.288 193.197 230.443 192.394C229.326 191.333 230.128 189.542 231.682 189.524C231.674 189.138 231.608 188.792 232.012 188.595Z" fill="#3C4561"/>
</g>
<g id="Group 9">
<path id="Vector_105" fill-rule="evenodd" clip-rule="evenodd" d="M228 230.645C228 229.184 229.184 228 230.645 228C232.106 228 233.29 229.184 233.29 230.645V233.318C233.29 233.709 232.973 234.025 232.583 234.025C232.192 234.025 231.875 233.709 231.875 233.318V230.645C231.875 229.965 231.325 229.414 230.645 229.414C229.965 229.414 229.414 229.965 229.414 230.645V235.129C229.414 235.519 229.098 235.836 228.707 235.836C228.317 235.836 228 235.519 228 235.129V230.645Z" fill="#6AE6B9"/>
<path id="Vector_106" d="M237.844 231.027H237.08C236.69 231.027 236.373 231.344 236.373 231.734V231.734C236.373 232.125 236.69 232.441 237.08 232.441H237.844C238.235 232.441 238.551 232.125 238.551 231.734V231.734C238.551 231.344 238.235 231.027 237.844 231.027Z" fill="white"/>
<path id="Vector_107" fill-rule="evenodd" clip-rule="evenodd" d="M241.04 230.645C241.04 229.184 239.856 228 238.395 228C236.934 228 235.75 229.184 235.75 230.645V233.318C235.75 233.709 236.067 234.025 236.457 234.025C236.848 234.025 237.164 233.709 237.164 233.318V230.645C237.164 229.965 237.715 229.414 238.395 229.414C239.075 229.414 239.625 229.965 239.625 230.645V233.318C239.625 233.709 239.942 234.025 240.333 234.025C240.723 234.025 241.04 233.709 241.04 233.318V230.645Z" fill="#6AE6B9"/>
<path id="Vector_108" fill-rule="evenodd" clip-rule="evenodd" d="M248.791 230.645C248.791 229.184 247.607 228 246.146 228C244.685 228 243.501 229.184 243.501 230.645V233.318C243.501 233.709 243.818 234.025 244.208 234.025C244.599 234.025 244.915 233.709 244.915 233.318V230.645C244.915 229.965 245.466 229.414 246.146 229.414C246.825 229.414 247.376 229.965 247.376 230.645V235.129C247.376 235.519 247.693 235.836 248.084 235.836C248.474 235.836 248.791 235.519 248.791 235.129V230.645Z" fill="#6AE6B9"/>
<path id="Vector_109" fill-rule="evenodd" clip-rule="evenodd" d="M231.875 233.361C231.875 234.821 233.059 236.005 234.52 236.005C235.981 236.005 237.165 234.821 237.165 233.361V230.687H235.75V233.361C235.75 234.04 235.2 234.591 234.52 234.591C233.84 234.591 233.289 234.04 233.289 233.361V230.687H231.875V233.361Z" fill="#6AE6B9"/>
<path id="Vector_110" fill-rule="evenodd" clip-rule="evenodd" d="M239.627 233.361C239.627 234.821 240.811 236.005 242.272 236.005C243.733 236.005 244.917 234.821 244.917 233.361V230.687H243.502V233.361C243.502 234.04 242.951 234.591 242.272 234.591C241.592 234.591 241.041 234.04 241.041 233.361V230.687H239.627V233.361Z" fill="#6AE6B9"/>
</g>
<g id="futuristic-magnifying-glass-icon 1">
<path id="Vector_111" d="M75.5657 236.572C76.2384 236.532 76.4117 237.447 75.7544 237.583C75.07 237.635 74.9168 236.802 75.5657 236.572Z" fill="black"/>
<path id="Vector_112" d="M75.0861 233.95C76.3721 233.751 76.9188 235.861 75.3181 236.2C75.04 236.155 74.7866 236.126 74.5545 235.949C73.727 235.32 74.0814 234.072 75.0861 233.95Z" fill="black"/>
<path id="Vector_113" d="M75.1261 234.514C75.8406 234.476 75.9756 235.367 75.3171 235.594C74.5372 235.633 74.4258 234.696 75.1261 234.514Z" fill="#F081B3"/>
<path id="Vector_114" d="M65.5626 231.422C69.1236 231.368 72.2212 233.494 73.133 237.015C73.6894 239.163 73.2767 241.605 71.8535 243.34C72.2356 243.61 72.7992 244.238 73.1373 244.579C73.8425 243.977 73.5859 243.913 74.3663 244.697L78.0368 248.333C79.6251 249.91 77.6529 252.403 75.8367 251.435C75.3869 251.195 74.9985 250.705 74.6429 250.339L73.7524 249.437C72.9997 248.695 72.2744 247.926 71.5171 247.189C70.9089 246.596 71.2395 246.642 71.6385 246.138C71.3498 245.851 70.5613 245.149 70.3519 244.868C69.1186 245.665 68.057 246.168 66.5412 246.294C62.4124 246.639 58.8347 243.537 58.4972 239.425C58.1849 235.62 60.9058 232.211 64.6262 231.525C64.9354 231.468 65.2496 231.447 65.5626 231.422ZM71.5207 243.775C71.2976 244.044 71.0449 244.257 70.7956 244.498L71.4805 245.169C71.6692 245.353 71.8705 245.542 72.029 245.754C72.2403 245.475 72.5332 245.268 72.7397 244.988L71.895 244.149C71.7705 244.026 71.6515 243.89 71.5207 243.775Z" fill="black"/>
<path id="Vector_115" d="M73.7013 244.865C73.865 245.004 74.0139 245.153 74.1619 245.308C73.5561 245.935 72.9392 246.559 72.3055 247.158C72.2008 247.086 71.9745 246.836 71.8575 246.733C72.2628 246.204 73.2089 245.332 73.7013 244.865Z" fill="#86B2F4"/>
<path id="Vector_116" d="M74.5727 245.751C74.7661 245.836 75.7508 246.897 75.9799 247.122L76.8505 247.983C77.1142 248.24 77.385 248.492 77.6378 248.759C78.5485 249.724 77.7452 251.331 76.2891 250.969C75.9229 250.848 75.705 250.57 75.4416 250.304L73.3457 248.18C73.1435 247.975 72.9215 247.782 72.7422 247.557C72.9051 247.371 73.0954 247.206 73.2682 247.028C73.6076 246.679 74.1922 246.031 74.5727 245.751Z" fill="#86B2F4"/>
<path id="Vector_117" d="M65.809 231.986C68.8922 231.797 71.7162 234.126 72.5538 237.038C73.6339 240.793 71.1938 244.791 67.3535 245.603C66.9245 245.694 66.4957 245.731 66.0592 245.76L65.9501 245.762C62.2362 245.796 59.0781 242.697 59.0487 238.983C59.019 235.223 62.018 232.005 65.809 231.986Z" fill="#70D6E3"/>
<path id="Vector_118" d="M65.753 232.941C67.2747 232.908 68.5992 233.382 69.7658 234.361C72.1702 236.377 72.588 240.153 70.5492 242.579C69.3451 244.012 67.9447 244.632 66.1376 244.786C64.5878 244.806 63.1974 244.361 62.0207 243.33C59.593 241.203 59.3299 237.398 61.4652 234.973C62.6314 233.649 64.0393 233.049 65.753 232.941Z" fill="black"/>
<path id="Vector_119" d="M65.7542 233.506C66.0676 233.447 66.4614 233.515 66.772 233.568C69.2518 233.991 71.1552 236.031 71.2847 238.571C71.438 241.576 69.1337 244.076 66.1375 244.221L66.0622 244.224C64.6791 244.275 63.3039 243.759 62.2916 242.816C58.7527 239.521 61.0386 233.652 65.7542 233.506Z" fill="url(#paint5_linear_21_2)"/>
<path id="Vector_120" d="M70.0202 238.278C70.1452 238.272 70.2543 238.291 70.3418 238.393C70.5356 238.619 70.1695 238.849 70.021 238.972C70.1732 239.168 70.5706 239.402 70.2572 239.664C70.1851 239.724 70.1111 239.723 70.0218 239.715C69.8438 239.641 69.4026 239.206 69.3326 239.066C69.2191 238.839 69.8561 238.358 70.0202 238.278Z" fill="black"/>
<path id="Vector_121" d="M63.3553 235.664C63.549 235.664 63.9921 235.614 64.1367 235.73C64.2452 235.817 64.2829 236.017 64.1854 236.126C64.0556 236.271 63.4178 236.201 63.215 236.213C63.2109 236.462 63.2154 236.712 63.2158 236.961C63.2205 237.201 63.1625 237.275 62.9237 237.322C62.7734 237.282 62.7038 237.235 62.6874 237.07C62.6239 236.431 62.5511 235.712 63.3553 235.664Z" fill="black"/>
<path id="Vector_122" d="M68.8281 240.537L68.8397 240.536C69.1469 240.517 69.1732 240.716 69.1794 240.973C69.2109 242.272 69.3049 242.204 68.037 242.2C67.7332 242.192 67.5746 241.93 67.773 241.737C67.9206 241.593 68.4313 241.643 68.6437 241.644C68.6449 241.312 68.5109 240.709 68.8281 240.537Z" fill="black"/>
<path id="Vector_123" d="M62.9271 240.543C63.3671 240.549 63.2224 241.359 63.2207 241.65C63.4623 241.648 64.2768 241.522 64.1783 241.982C64.1567 242.083 64.0779 242.152 63.9939 242.204C63.7466 242.225 62.86 242.308 62.7269 242.058C62.6756 241.962 62.665 240.809 62.7091 240.715C62.7528 240.622 62.8392 240.583 62.9271 240.543Z" fill="black"/>
<path id="Vector_124" d="M67.9241 235.659C68.1756 235.657 68.5881 235.623 68.8203 235.682C69.2858 235.8 69.1727 236.23 69.1711 236.591C69.1698 236.894 69.3527 237.318 68.9003 237.316C68.4889 237.299 68.6371 236.545 68.6378 236.207C68.4267 236.209 67.862 236.254 67.7003 236.146C67.4884 236.005 67.6135 235.692 67.9241 235.659Z" fill="black"/>
<path id="Vector_125" d="M65.9381 236.752C67.1588 236.627 68.3661 237.538 69.02 238.493C69.3992 239.046 69.3402 239.025 68.9661 239.506C67.8376 240.956 66.058 241.748 64.3424 240.746C64.2311 240.681 64.1261 240.605 64.0093 240.55L63.9922 240.542C63.6606 240.265 63.3431 239.989 63.0639 239.657C62.9054 239.468 62.7723 239.243 62.6016 239.067C62.4425 239.227 61.9126 239.939 61.6385 239.657C61.397 239.409 61.731 239.147 61.9033 238.981C61.7738 238.863 61.5764 238.758 61.54 238.574C61.4881 238.312 61.7905 238.213 61.9824 238.322C62.1247 238.403 62.4445 238.738 62.6014 238.868C63.0822 237.726 64.7219 236.766 65.9381 236.752Z" fill="black"/>
<path id="Vector_126" d="M65.8756 237.319C66.864 237.197 68.3091 238.078 68.6408 238.973C68.269 239.798 66.9366 240.574 66.0536 240.618C64.8873 240.643 63.8233 239.874 63.2175 238.916C63.7575 238.048 64.8553 237.336 65.8756 237.319Z" fill="#FEFEFE"/>
<path id="Vector_127" d="M65.8155 237.693C67.3619 237.436 67.8244 239.889 66.1329 240.204C64.432 240.405 64.1253 237.943 65.8155 237.693Z" fill="black"/>
<path id="Vector_128" d="M65.8766 238.232C66.7869 238.138 66.9817 239.486 66.0525 239.65C65.1054 239.732 64.9409 238.419 65.8766 238.232Z" fill="#F081B3"/>
</g>
</g>
<defs>
<linearGradient id="paint0_linear_21_2" x1="170.835" y1="85.277" x2="135.298" y2="82.1636" gradientUnits="userSpaceOnUse">
<stop stop-color="#FF8625"/>
<stop offset="1" stop-color="#FFA947"/>
</linearGradient>
<linearGradient id="paint1_linear_21_2" x1="78.4933" y1="31.2467" x2="68.7087" y2="19.0525" gradientUnits="userSpaceOnUse">
<stop stop-color="#2F8FF2"/>
<stop offset="1" stop-color="#50B1F9"/>
</linearGradient>
<linearGradient id="paint2_linear_21_2" x1="78.9126" y1="23.9313" x2="68.8462" y2="24.5883" gradientUnits="userSpaceOnUse">
<stop stop-color="#4CCAF5"/>
<stop offset="1" stop-color="#9AE9F4"/>
</linearGradient>
<radialGradient id="paint3_radial_21_2" cx="0" cy="0" r="1" gradientUnits="userSpaceOnUse" gradientTransform="translate(226.869 61.3) rotate(48.0199) scale(13.8653)">
<stop offset="0.01" stop-color="#F7D8FF"/>
<stop offset="0.325921" stop-color="#E999FE"/>
<stop offset="0.769106" stop-color="#AF41FF"/>
<stop offset="0.995" stop-color="#6C10AE"/>
</radialGradient>
<radialGradient id="paint4_radial_21_2" cx="0" cy="0" r="1" gradientUnits="userSpaceOnUse" gradientTransform="translate(226.279 58.8003) rotate(55.0763) scale(16.4855)">
<stop offset="0.12195" stop-color="#E9DCF4"/>
<stop offset="0.246592" stop-color="#BC8BE7"/>
<stop offset="0.482689" stop-color="#BC8BE7" stop-opacity="0"/>
<stop offset="0.901538" stop-color="#7023B2" stop-opacity="0"/>
<stop offset="1" stop-color="#BC8BE7"/>
</radialGradient>
<linearGradient id="paint5_linear_21_2" x1="62.1589" y1="242.646" x2="69.6753" y2="235.066" gradientUnits="userSpaceOnUse">
<stop stop-color="#DCE6F8"/>
<stop offset="1" stop-color="#FFFFFE"/>
</linearGradient>
<clipPath id="clip0_21_2">
<rect width="263" height="263" fill="white"/>
</clipPath>
</defs>
</svg>
