<?xml version="1.0" encoding="utf-8" ?>
<svg xmlns="http://www.w3.org/2000/svg" xmlns:xlink="http://www.w3.org/1999/xlink" width="263" height="263">
	<path fill="#5B1E5E" transform="scale(0.512935 0.512935)" d="M174.738 174.268C181.092 173.615 183.711 181.858 177.879 184.682C172.42 185.518 170.238 177.139 174.738 174.268Z"/>
	<path fill="#5B1E5E" transform="scale(0.512935 0.512935)" d="M253.25 67.9314C259.986 67.0954 262.819 73.5391 258.278 75.4434C255.819 76.4743 252.068 76.0438 249.384 76.304C230.598 78.1253 213.896 86.3818 200.46 99.6892C183.272 116.712 178.046 136.466 177.902 159.627C177.887 162.043 177.934 163.223 176.112 165.014C172.028 166.85 170.119 164.563 169.845 160.554C166.446 110.823 204.09 71.1484 253.25 67.9314Z"/>
	<path fill="#5B1E5E" transform="scale(0.512935 0.512935)" d="M311.829 100.649C305.232 91.8961 290.082 83.467 279.701 79.7845C275.762 78.3872 268.116 78.427 269.102 72.5111C269.731 68.7358 274.703 69.6338 277.298 70.3648C341.097 88.3326 363.408 167.847 319.382 217.645C317.334 219.963 315.209 222.471 312.727 224.323L312.727 241.431C320.375 248.22 324.396 255.29 327.948 264.753C340.73 264.662 350.191 265.26 360.215 255.041C367.943 247.163 369.143 237.415 368.992 226.845L368.85 206.252C368.848 202.942 368.706 199.564 368.866 196.262C349.635 185.071 352.565 156.772 374.868 151.007C400.603 144.355 418.384 177.528 395.337 195.51L395.342 223.417C395.344 229.35 395.697 235.538 395.055 241.427C392.547 264.44 372.112 284.96 349.744 289.533C346.033 290.292 342.098 290.336 338.472 291.418C348.234 297.104 357.021 295.59 367.929 295.569C386.588 295.535 414.137 300.135 418.276 274.846C419.957 264.576 418.218 247.697 418.654 236.569C406.997 229.867 403.223 214.21 410.043 202.712C427.452 173.362 471.185 200.832 453.394 228.652C451.064 232.295 447.956 234.678 444.752 237.488L444.758 261.157C444.776 279.038 444.743 293.029 430.698 306.978C411.831 325.718 391.635 321.242 367.797 321.26C370.575 324.36 374.288 326.418 377.222 329.354C390.843 342.983 389.4 349.953 393.489 365.552C413.405 380.584 405.767 408.777 383.52 411.861C354.993 415.816 344.385 377.846 367.036 365.552C366.123 357.519 363.267 351.244 356.827 346.11C341.659 334.019 329.835 348.496 304.137 320.017C297.38 323.859 292.697 325.643 285.188 327.764C283.24 343.651 293.452 347.374 305.875 350.792C321.862 355.191 333.798 370.631 336.113 386.711C337.213 394.356 336.431 402.185 336.665 409.878C348.894 419.34 344.162 438.461 328.093 440.031C318.867 440.933 310.961 433.163 310.322 424.278C309.41 411.605 313.59 387.255 304.145 378.77C299.486 374.585 293.796 375.174 288.228 373.321C267.916 366.562 258.58 347.948 258.737 327.764C256.91 327.724 255.076 327.648 253.25 327.764C253.343 347.961 244.033 365.506 224.829 373.005C218.012 375.667 211.59 374.307 206.474 380.511C201.123 387.002 201.722 394.439 201.747 402.356L201.792 416.987C201.81 423.63 202.103 429.427 197.326 434.669C182.215 451.254 155.011 426.231 176.112 409.197C176.414 395.384 174.649 385.227 181.32 372.275C190.373 354.696 198.669 354.292 214.085 349.187C224.136 345.859 227.108 336.679 226.909 327.08C220.32 326.42 212.995 323.698 207.818 319.546C196.338 330.205 188.007 338.787 171.904 340.948C155.123 343.2 147.893 346.796 146.079 366.131C166.329 381.199 158.412 409.269 135.679 412.296C108.008 415.981 96.6701 377.101 120.626 365.552C120.903 347.207 129.205 329.425 146.079 321.26L126.26 321.27C104.203 321.29 87.2913 318.245 74.3107 297.174C67.2903 285.779 67.5162 275.262 67.5155 262.435L67.5303 236.569C55.3943 229.608 51.5912 214.482 58.5383 202.395C69.5512 183.233 99.1154 187.892 104.296 208.845C106.783 218.906 102.687 231.394 93.2899 236.569L93.2789 257.481C93.2715 276.664 94.3628 295.967 119.164 295.669L147.273 295.576C160.419 295.608 162.42 296.223 174.738 291.418C154.326 288.127 141.384 284.992 128.011 266.477C115.55 249.225 116.094 217.147 117.487 195.51C88.394 171.06 122.737 135.7 146.993 156.432C160.371 167.866 157.026 186.524 143.333 195.51L143.325 219.359C143.327 226.758 142.702 234.886 144.539 242.094C148.77 258.699 167.126 268.841 183.555 264.753C188.685 253.88 189.219 248.473 199.807 239.818L199.807 226.356C194.902 221.551 178.394 203.491 178.427 196.181C178.442 192.679 182.932 191.076 185.081 193.788C186.335 195.369 187.176 197.575 188.164 199.357C195.086 211.83 200.244 213.803 207.818 222.592L207.818 237.488C210.354 237.653 212.8 237.715 215.333 237.488C215.978 237.448 216.444 237.55 216.957 237.13C217.524 230.426 219.404 216.183 212.825 212.976C208.622 213.676 206.973 211.584 205.18 207.99C185.755 190.222 183.404 155.844 191.459 131.566C191.632 129.403 192.313 127.524 193.669 125.821C200.641 114.006 208.045 102.597 220.833 96.3559C221.978 95.4579 223.027 94.7725 224.338 94.1415L224.583 93.9525C233.92 86.8855 252.745 83.0345 264.674 84.6953C266.532 84.5841 267.694 84.7235 269.439 85.4709C281.477 86.8833 292.551 90.6089 303.455 95.813C306.153 97.1007 309.161 99.9002 311.829 100.649ZM130.26 404.664C121.131 394.165 120.48 377.197 135.773 374.14C137.899 373.714 140.115 373.781 142.257 373.364L142.518 373.311C114.908 360.508 104.412 397.231 130.26 404.664ZM130.26 190.25C112.721 180.297 120.651 158.311 143.333 164.396C129.255 147.892 104.229 169.137 118.4 185.601C121.646 189.373 125.472 190.868 130.26 190.25ZM80.2098 231.726C67.0645 223.785 64.672 209.204 80.1283 202.463C82.3082 201.512 84.5616 200.857 86.6506 199.69L86.9933 199.495C56.1315 192.23 57.5754 232.761 80.2098 231.726ZM428.164 231.726C419.239 223.544 417.604 210.342 428.91 203.654C434.058 200.609 437.577 201.535 442.867 202.877L443.169 202.952C435.968 196.782 425.373 196.824 418.961 204.223C410.853 213.578 415.789 229.669 428.164 231.726ZM375.799 190.25C362.889 175.96 374.452 157.761 389.78 162.975C390.877 163.348 391.901 163.899 393.007 164.248L393.489 164.396C388.058 157.322 377.386 156.66 370.548 162.039C360.215 170.165 362.867 186.336 375.799 190.25ZM371.246 401.175C366.252 394.297 366.933 384.938 372.857 378.742C377.619 373.762 383.304 373.459 389.784 373.311C370.75 359.207 351.914 390.997 371.246 401.175Z"/>
	<path fill="#FEB659" transform="scale(0.512935 0.512935)" d="M317.736 167.295C317.481 172.731 315.193 182.172 311.829 186.403C308.657 179.08 310.672 171.379 317.736 167.295Z"/>
	<path fill="#6ADFEC" transform="scale(0.512935 0.512935)" d="M184.23 415.067C195.562 414.553 196.807 428.428 186.393 431.799C174.835 432.186 173.422 417.206 184.23 415.067Z"/>
	<path fill="#6ADFEC" transform="scale(0.512935 0.512935)" d="M327.065 415.067C335.698 413.241 339.429 429.427 327.948 431.799C316.432 431.746 314.457 417.005 327.065 415.067Z"/>
	<path fill="#FEB659" transform="scale(0.512935 0.512935)" d="M283.259 217.993C283.182 213.334 283.052 208.778 285.002 204.426C288.629 196.332 299.192 191.761 307.448 195.51C305.19 203.243 290.029 213.811 283.259 217.993Z"/>
	<path fill="#6ADFEC" transform="scale(0.512935 0.512935)" d="M130.26 190.25C112.721 180.297 120.651 158.311 143.333 164.396C153.927 172.642 143.149 192.97 130.26 190.25Z"/>
	<path fill="#6ADFEC" transform="scale(0.512935 0.512935)" d="M142.518 373.311C146.588 377.913 149.819 381.913 149.465 388.407C148.925 398.318 140.045 405.523 130.26 404.664C121.131 394.165 120.48 377.197 135.773 374.14C137.899 373.714 140.115 373.781 142.257 373.364L142.518 373.311Z"/>
	<path fill="#D4F7FA" transform="scale(0.512935 0.512935)" d="M203.787 246.542C205.874 244.073 216.578 245.772 220.833 245.241L221.263 245.569C220.108 247.193 215.917 249.099 214.08 250.583C196.324 265.843 195.468 290.673 210.417 308.341C211.621 309.763 218.636 315.686 218.928 316.628C213.664 314.848 208.831 311.337 204.853 307.521C186.185 289.618 185.932 265.043 203.787 246.542Z"/>
	<path fill="#6ADFEC" transform="scale(0.512935 0.512935)" d="M375.799 190.25C362.889 175.96 374.452 157.761 389.78 162.975C390.877 163.348 391.901 163.899 393.007 164.248L393.489 164.396C405.276 175.25 390.534 197.303 375.799 190.25Z"/>
	<path fill="#6ADFEC" transform="scale(0.512935 0.512935)" d="M86.9933 199.495C105.056 210.97 95.6 232.594 80.2098 231.726C67.0645 223.785 64.672 209.204 80.1283 202.463C82.3082 201.512 84.5616 200.857 86.6506 199.69L86.9933 199.495Z"/>
	<path fill="#6ADFEC" transform="scale(0.512935 0.512935)" d="M428.164 231.726C419.239 223.544 417.604 210.342 428.91 203.654C434.058 200.609 437.577 201.535 442.867 202.877L443.169 202.952C457.882 214.997 442.015 236.8 428.164 231.726Z"/>
	<path fill="#6ADFEC" transform="scale(0.512935 0.512935)" d="M389.784 373.311C401.456 381.719 397.123 401.591 382.485 403.648C379.172 404.113 373.793 403.597 371.246 401.175C366.252 394.297 366.933 384.938 372.857 378.742C377.619 373.762 383.304 373.459 389.784 373.311Z"/>
	<path fill="#6ADFEC" transform="scale(0.512935 0.512935)" d="M193.669 308.056C196.045 310.435 198.513 312.658 201.024 314.891C186.917 330.654 180.875 330.409 162.705 333.803C147.317 336.678 140.798 347.531 138.22 362.009L138.073 362.549C136.323 363.211 131.344 362.241 129.306 362.009C129.266 359.405 129.44 357.38 130.26 354.902C130.715 338.734 150.084 325.082 165.315 323.467C180.27 321.881 182.785 317.824 193.669 308.056Z"/>
	<path fill="#6ADFEC" transform="scale(0.512935 0.512935)" d="M318.48 307.032C329.003 318.198 335.141 320.145 349.049 323.209C368.684 327.535 381.097 342.375 384.667 362.009C382.324 361.948 379.982 361.984 377.639 362.009L375.799 362.009C371.806 347.576 363.161 335.589 347.269 332.986C332.202 330.519 322.129 330.134 311.829 314.891C313.83 312.113 316.214 309.594 318.48 307.032Z"/>
	<path fill="#6ADFEC" transform="scale(0.512935 0.512935)" d="M235.439 327.764C238.565 327.754 241.737 327.632 244.858 327.764C244.976 339.419 243.301 347.879 234.896 356.534C225.811 365.89 220.874 364.916 210.328 368.491C190.163 375.326 195.09 393.813 193.669 408.342C193.277 408.954 191.353 408.418 190.751 408.342C188.476 407.341 186.705 407.093 184.23 407.059C184.204 391.057 183.25 378.68 195.563 366.397C210.154 351.842 234.235 363.68 235.439 327.764Z"/>
	<path fill="#6ADFEC" transform="scale(0.512935 0.512935)" d="M267.227 327.764L276.547 327.764C276.533 339.979 281.017 351.05 293.337 355.892C304.99 360.472 310.781 357.997 320.742 370.7C327.811 379.715 329.536 395.228 328.202 406.576C327.594 407.036 326.677 406.989 325.94 407.059C323.185 407.172 320.925 408.008 318.48 409.197L318.495 395.065C318.466 383.537 313.712 372.44 302.135 368.427C297.936 366.971 293.464 366.642 289.322 364.918C272.3 357.831 267.174 344.466 267.227 327.764Z"/>
	<path fill="#6ADFEC" transform="scale(0.512935 0.512935)" d="M125.519 198.754C128.774 198.914 132.02 198.93 135.274 198.754C135.832 221.675 129.825 246.115 148.277 263.141C158.406 272.489 169.643 273.609 182.73 273.042C182.648 276.176 182.633 279.286 182.73 282.42L182.488 282.788C155.156 287.936 127.816 264.156 125.603 236.618C125.213 231.764 125.511 226.708 125.512 221.827L125.519 198.754Z"/>
	<path fill="#6ADFEC" transform="scale(0.512935 0.512935)" d="M386.404 199.495L386.778 199.461C387.526 200.806 387.296 234.405 387.007 238.408C384.898 267.613 357.499 284.707 329.81 282.42C327.599 282.33 328.608 275.921 328.287 273.042L336.789 273.109C354.16 273.17 371.074 261.585 375.689 244.557C377.659 237.288 376.992 229.174 376.992 221.682L376.98 199.495C380.148 199.743 383.238 199.686 386.404 199.495Z"/>
	<path fill="#FEB659" transform="scale(0.512935 0.512935)" d="M212.825 212.976L213.012 212.778C215.717 209.87 213.927 207.776 212.76 204.589C206.582 187.712 240.505 179.677 240.706 204.993L240.668 237.488L224.214 237.506C221.266 237.511 218.274 237.655 215.333 237.488C215.978 237.448 216.444 237.55 216.957 237.13C217.524 230.426 219.404 216.183 212.825 212.976Z"/>
	<path fill="#379F9A" transform="scale(0.512935 0.512935)" d="M287.137 245.241C291.199 245.101 301.206 244.677 304.959 245.241C311.874 249.808 318.119 260.004 319.73 267.828C325.81 297.352 301.775 320.445 272.731 319.546C275.283 318.959 278.424 316.761 280.591 315.343C301.136 301.89 313.43 279.564 298.431 257.091C296.086 253.577 291.378 246.092 287.137 245.241Z"/>
	<path fill="#6ADFEC" transform="scale(0.512935 0.512935)" d="M75.444 239.818L85.172 239.818L85.1593 261.304C85.1404 279.173 87.0168 297.305 108.654 302.639C116.521 304.579 131.856 303.785 140.66 303.785C158.456 303.783 172.141 306.458 185.269 291.418C185.839 293.075 189.605 300.599 189.585 300.99C181.033 310.256 169.616 313.622 157.292 313.653L132.299 313.653C115.226 313.657 100.567 314.076 87.5219 300.967C75.6011 288.988 75.4317 276.627 75.4318 261.206L75.444 239.818Z"/>
	<path fill="#6ADFEC" transform="scale(0.512935 0.512935)" d="M426.957 239.818C430.361 240.175 433.345 240.336 436.744 239.818L436.755 259.632C436.759 272.489 437.215 284.221 429.472 295.353C418.418 311.245 404.496 313.665 387.023 313.647L356.159 313.67C343.536 313.708 338.984 313.067 328.287 305.577C326.629 303.572 324.979 301.57 323.404 299.499C324.633 296.425 325.916 293.387 327.065 290.28C333.3 298.356 340.271 303.734 351.115 303.787L376.669 303.774C391.829 303.793 406.089 305.624 417.711 293.963C427.596 284.047 426.978 273.206 426.971 260.272L426.957 239.818Z"/>
	<defs>
		<linearGradient id="gradient_0" gradientUnits="userSpaceOnUse" x1="333.05258" y1="166.25314" x2="263.77243" y2="160.18323">
			<stop offset="0" stop-color="#FF8625"/>
			<stop offset="1" stop-color="#FFA947"/>
		</linearGradient>
	</defs>
	<path fill="url(#gradient_0)" transform="scale(0.512935 0.512935)" d="M269.439 85.4709C281.477 86.8833 292.551 90.6089 303.455 95.813C306.153 97.1007 309.161 99.9002 311.829 100.649C318.307 105.441 326.596 120.871 329.373 128.537C339.924 157.66 332.671 193.712 310.325 215.54C308.59 217.234 306.407 218.917 304.959 220.841C304.525 226.273 304.977 232.024 304.959 237.488L283.259 237.488L283.259 217.993C290.029 213.811 305.19 203.243 307.448 195.51C310.963 196.545 316.119 204.141 318.686 197.045C320.151 192.995 314.162 191.007 311.829 186.403C315.193 182.172 317.481 172.731 317.736 167.295C321.109 164.966 320.999 161.532 317.736 159.275C318.139 156.928 317.382 154.61 317.998 152.246L317.736 151.944C321.289 150.46 321.337 143.931 316.572 143.802C318.574 141.271 308.5 117.548 304.959 114.487C308.374 111.885 307.102 107.225 302.435 107.36C301.046 107.4 299.608 108.151 298.272 108.55C287.073 111.901 273.918 105.78 271.26 93.8071C270.64 91.0172 270.728 88.0873 269.439 85.4709Z"/>
	<path fill="#6ADFEC" transform="scale(0.512935 0.512935)" d="M220.833 245.241C226.233 245.607 231.909 245.228 237.345 245.23L271.481 245.25C276.74 245.237 281.879 244.766 287.137 245.241C291.378 246.092 296.086 253.577 298.431 257.091C313.43 279.564 301.136 301.89 280.591 315.343C278.424 316.761 275.283 318.959 272.731 319.546C261 319.741 227.598 321.134 218.928 316.628C218.636 315.686 211.621 309.763 210.417 308.341C195.468 290.673 196.324 265.843 214.08 250.583C215.917 249.099 220.108 247.193 221.263 245.569L220.833 245.241Z"/>
	<path fill="#5B1E5E" transform="scale(0.512935 0.512935)" d="M283.259 262.086C305.76 260.536 307.077 289.497 288.06 291.418C268.293 294.411 263.891 265.273 283.259 262.086Z"/>
	<path fill="#FFC74B" transform="scale(0.512935 0.512935)" d="M285.188 269.277C295.085 268.922 296.806 282.454 287.137 284.139C276.71 284.468 275.151 272.58 285.188 269.277Z"/>
	<path fill="#5B1E5E" transform="scale(0.512935 0.512935)" d="M224.338 260.075C243.248 257.673 247.876 288.783 226.909 291.418C205.842 292.034 204.372 262.953 224.338 260.075Z"/>
	<path fill="#FFC74B" transform="scale(0.512935 0.512935)" d="M224.338 269.277C233.188 266.609 236.642 279.826 226.909 282.828C217.217 284.617 214.458 269.715 224.338 269.277Z"/>
	<path fill="#FEB659" transform="scale(0.512935 0.512935)" d="M224.338 94.1415L224.583 93.9525C233.92 86.8855 252.745 83.0345 264.674 84.6953C266.532 84.5841 267.694 84.7235 269.439 85.4709C270.728 88.0873 270.64 91.0172 271.26 93.8071C273.918 105.78 287.073 111.901 298.272 108.55C299.608 108.151 301.046 107.4 302.435 107.36C307.102 107.225 308.374 111.885 304.959 114.487C308.5 117.548 318.574 141.271 316.572 143.802C321.337 143.931 321.289 150.46 317.736 151.944L317.998 152.246C317.382 154.61 318.139 156.928 317.736 159.275C305.515 158.46 300.977 175.858 302.782 186.403C287.644 185.665 275.761 196.712 275.278 211.86C275.006 220.378 275.267 228.963 275.257 237.488L248.686 237.488L248.698 217.081C248.697 210.683 249.265 203.206 247.563 196.998C240.138 169.907 198.68 177.88 205.18 207.99C185.755 190.222 183.404 155.844 191.459 131.566C191.632 129.403 192.313 127.524 193.669 125.821C200.641 114.006 208.045 102.597 220.833 96.3559C221.978 95.4579 223.027 94.7725 224.338 94.1415Z"/>
	<path fill="#5B1E5E" transform="scale(0.512935 0.512935)" d="M193.669 125.821C214.912 125.522 225.806 149.352 211.17 163.737C207.903 166.948 196.332 172.06 192.162 167.987C186.616 162.569 198.246 161.343 200.019 160.876C209.711 158.324 212.555 146.236 206.244 139.01C201.591 133.682 199.065 135.177 193.669 133.346C192.926 132.772 192.137 132.217 191.459 131.566C191.632 129.403 192.313 127.524 193.669 125.821Z"/>
	<path fill="#5B1E5E" transform="scale(0.512935 0.512935)" d="M259.635 135.604C288.475 133.899 290.977 178.979 261.398 180.318C232.688 181.72 228.797 138.257 259.635 135.604Z"/>
	<path fill="#FEB659" transform="scale(0.512935 0.512935)" d="M258.737 143.802C276.325 141.354 281.552 167.624 262.56 172.212C243.574 173.872 238.831 147.881 258.737 143.802Z"/>
	<path fill="#5B1E5E" transform="scale(0.512935 0.512935)" d="M224.338 94.1415L224.583 93.9525C233.92 86.8855 252.745 83.0345 264.674 84.6953C266.532 84.5841 267.694 84.7235 269.439 85.4709C270.728 88.0873 270.64 91.0172 271.26 93.8071C273.918 105.78 287.073 111.901 298.272 108.55C299.608 108.151 301.046 107.4 302.435 107.36C307.102 107.225 308.374 111.885 304.959 114.487C308.5 117.548 318.574 141.271 316.572 143.802C321.337 143.931 321.289 150.46 317.736 151.944C300.794 148.638 291.506 134.281 294.644 117.46C283.155 117.857 273.198 113.789 267.227 103.408C257.511 113.53 246.905 117.827 233.107 112.002C231.762 119.399 229.339 124.5 223.162 129.132C221.093 130.684 217.871 132.527 216.145 129.589C212.074 122.66 232.346 118.649 221.71 101.179C220.595 99.3473 220.32 98.4596 220.833 96.3559C221.978 95.4579 223.027 94.7725 224.338 94.1415Z"/>
	<path fill="#FEB659" transform="scale(0.512935 0.512935)" d="M316.572 143.802C305.192 139.164 296.621 124.778 304.959 114.487C308.5 117.548 318.574 141.271 316.572 143.802Z"/>
	<path fill="#FEB659" transform="scale(0.512935 0.512935)" d="M224.338 94.1415L224.583 93.9525C233.92 86.8855 252.745 83.0345 264.674 84.6953C262.731 86.2881 262.536 88.1371 262.348 90.4988C261.122 105.877 241.292 112.333 231.206 100.254C229.186 97.8347 228.064 94.497 224.585 94.1631L224.338 94.1415Z"/>
</svg>
