<?xml version="1.0" encoding="utf-8" ?>
<svg xmlns="http://www.w3.org/2000/svg" xmlns:xlink="http://www.w3.org/1999/xlink" width="25" height="25">
	<path fill="#1E0F1B" transform="scale(0.0244141 0.0244141)" d="M509.217 40.5267C511.564 40.4106 513.588 40.1491 515.496 41.7824C522.674 47.9294 532.397 65.3032 538.313 73.8453L598.663 161.237L741.683 368.497L780.045 424.154C795.303 446.394 810.437 468.762 822.552 492.909C843.056 533.777 857.783 580.137 859.415 626.082Q859.558 630.343 859.596 634.607Q859.634 638.87 859.566 643.133Q859.499 647.396 859.326 651.656Q859.154 655.917 858.876 660.171Q858.599 664.426 858.216 668.672Q857.834 672.918 857.347 677.154Q856.86 681.39 856.268 685.612Q855.677 689.834 854.981 694.041Q854.286 698.248 853.487 702.436Q852.688 706.624 851.786 710.791Q850.883 714.958 849.879 719.101Q848.874 723.245 847.768 727.362Q846.661 731.48 845.453 735.569Q844.246 739.658 842.937 743.716Q841.629 747.774 840.221 751.798Q838.813 755.822 837.306 759.811Q835.799 763.799 834.194 767.749Q832.589 771.699 830.888 775.609Q829.186 779.518 827.388 783.384Q825.59 787.25 823.698 791.07Q821.805 794.891 819.819 798.664Q817.833 802.436 815.754 806.159Q813.676 809.881 811.506 813.552Q809.336 817.222 807.076 820.837Q804.816 824.453 802.468 828.011Q800.12 831.57 797.684 835.07Q795.249 838.569 792.728 842.008Q790.207 845.446 787.602 848.821Q784.997 852.196 782.309 855.506Q779.622 858.816 776.853 862.059Q774.085 865.301 771.237 868.475Q768.39 871.648 765.465 874.75Q763.226 877.158 760.941 879.523Q758.657 881.888 756.328 884.209Q753.999 886.53 751.627 888.807Q749.254 891.084 746.839 893.315Q744.424 895.546 741.967 897.731Q739.51 899.917 737.012 902.055Q734.514 904.193 731.976 906.283Q729.438 908.374 726.861 910.416Q724.283 912.457 721.668 914.45Q719.052 916.443 716.399 918.385Q713.746 920.328 711.057 922.22Q708.368 924.112 705.643 925.953Q702.919 927.794 700.16 929.583Q697.401 931.371 694.609 933.108Q691.816 934.844 688.991 936.527Q686.167 938.209 683.31 939.839Q680.454 941.468 677.567 943.042Q674.681 944.617 671.765 946.136Q668.849 947.656 665.905 949.12Q662.961 950.584 659.989 951.992Q657.018 953.4 654.02 954.751Q651.022 956.102 648 957.397Q644.977 958.691 641.93 959.928Q638.884 961.165 635.814 962.343Q632.745 963.522 629.653 964.642Q626.562 965.763 623.45 966.824Q620.338 967.886 617.206 968.888Q614.074 969.891 610.924 970.833Q607.774 971.776 604.607 972.659Q601.44 973.542 598.256 974.365Q595.073 975.187 591.874 975.949Q588.675 976.712 585.463 977.413C562.113 982.377 538.82 984.572 515.012 985.435Q510.631 985.49 506.25 985.463C433.82 984.829 360.182 957.807 302.646 914.214Q292.059 906.026 282.073 897.115Q272.087 888.204 262.75 878.614Q259.812 875.624 256.947 872.563Q254.083 869.503 251.293 866.373Q248.504 863.244 245.792 860.047Q243.08 856.851 240.447 853.589Q237.814 850.327 235.26 847.002Q232.707 843.678 230.236 840.291Q227.765 836.905 225.377 833.46Q222.989 830.015 220.685 826.512Q218.382 823.01 216.165 819.452Q213.947 815.895 211.817 812.284Q209.687 808.673 207.646 805.012Q205.604 801.351 203.653 797.641Q201.701 793.931 199.841 790.174Q197.98 786.418 196.211 782.617Q194.443 778.816 192.768 774.974Q191.092 771.131 189.511 767.249Q187.93 763.366 186.444 759.446Q184.957 755.527 183.567 751.572Q182.177 747.617 180.884 743.63Q179.59 739.642 178.394 735.624Q177.198 731.606 176.101 727.561Q175.003 723.515 174.005 719.443Q173.006 715.372 172.107 711.278Q171.207 707.183 170.408 703.068Q169.609 698.953 168.91 694.82Q168.212 690.686 167.614 686.537Q167.016 682.388 166.52 678.225Q166.024 674.063 165.629 669.889Q165.234 665.716 164.941 661.534Q164.648 657.353 164.457 653.165Q164.266 648.977 164.177 644.786Q164.088 640.595 164.101 636.403C164.645 592.381 173.915 550.494 192.611 510.588C213.652 465.676 243.641 424.977 271.846 384.374L369.033 243.277Q414.109 175.809 460.34 109.124Q474.65 88.0041 489.18 67.0352C495.35 58.1347 501.454 48.1103 509.217 40.5267ZM511.642 75.317C492.19 100.873 474.598 127.793 456.551 154.349L369.932 281.779L288.933 399.326C259.695 441.652 224.001 490.122 205.514 537.964Q203.927 542.18 202.472 546.444Q201.017 550.708 199.696 555.015Q198.375 559.322 197.189 563.669Q196.004 568.015 194.954 572.396Q193.905 576.778 192.993 581.19Q192.081 585.601 191.308 590.04Q190.534 594.478 189.899 598.938Q189.265 603.399 188.77 607.876Q188.275 612.354 187.92 616.846Q187.566 621.337 187.351 625.837Q187.137 630.337 187.064 634.842Q186.99 639.346 187.057 643.851Q187.125 648.355 187.332 652.856Q187.54 657.356 187.889 661.848Q188.237 666.34 188.726 670.818Q189.215 675.297 189.843 679.758Q190.383 683.753 191.022 687.734Q191.661 691.714 192.399 695.678Q193.136 699.641 193.972 703.585Q194.808 707.529 195.741 711.451Q196.675 715.373 197.705 719.271Q198.736 723.168 199.863 727.039Q200.99 730.91 202.213 734.751Q203.436 738.593 204.754 742.403Q206.072 746.213 207.484 749.989Q208.896 753.765 210.402 757.505Q211.907 761.245 213.505 764.946Q215.103 768.648 216.792 772.308Q218.481 775.969 220.261 779.586Q222.041 783.204 223.91 786.776Q225.779 790.348 227.736 793.873Q229.693 797.397 231.737 800.872Q233.781 804.347 235.911 807.77Q238.04 811.193 240.254 814.563Q242.468 817.932 244.765 821.245Q247.062 824.558 249.441 827.813Q251.82 831.068 254.278 834.263Q256.737 837.458 259.274 840.591Q261.811 843.724 264.426 846.793Q267.04 849.862 269.73 852.865Q272.419 855.868 275.183 858.804Q277.946 861.739 280.782 864.605Q283.617 867.471 286.523 870.265Q289.429 873.06 292.403 875.781Q295.378 878.503 298.419 881.15Q301.46 883.797 304.565 886.367Q307.671 888.938 310.84 891.43Q314.008 893.923 317.238 896.336Q319.848 898.335 322.499 900.28Q325.15 902.224 327.84 904.114Q330.531 906.003 333.26 907.836Q335.99 909.668 338.756 911.444Q341.523 913.22 344.326 914.938Q347.13 916.656 349.968 918.315Q352.806 919.974 355.678 921.574Q358.55 923.174 361.455 924.714Q364.359 926.254 367.295 927.733Q370.231 929.213 373.197 930.631Q376.163 932.049 379.158 933.405Q382.153 934.761 385.176 936.054Q388.198 937.348 391.247 938.579Q394.295 939.809 397.369 940.976Q400.442 942.143 403.54 943.246Q406.637 944.349 409.756 945.387Q412.875 946.425 416.016 947.399Q419.156 948.372 422.316 949.28Q425.476 950.188 428.654 951.03Q431.831 951.872 435.026 952.647Q438.221 953.423 441.431 954.133Q444.641 954.842 447.866 955.484Q451.09 956.127 454.327 956.702Q457.564 957.278 460.812 957.786Q464.06 958.294 467.318 958.734Q470.576 959.175 473.842 959.547Q477.109 959.92 480.382 960.225Q483.656 960.529 486.935 960.766Q490.214 961.003 493.497 961.171Q496.781 961.34 500.067 961.44Q503.353 961.54 506.64 961.572Q509.928 961.604 513.215 961.568C600.421 961.246 679.966 928.535 741.557 866.588Q744.384 863.769 747.141 860.881Q749.898 857.993 752.583 855.039Q755.267 852.084 757.879 849.064Q760.49 846.044 763.026 842.961Q765.562 839.877 768.022 836.732Q770.482 833.588 772.863 830.383Q775.244 827.179 777.546 823.917Q779.848 820.654 782.068 817.337Q784.289 814.019 786.427 810.647Q788.566 807.276 790.62 803.853Q792.675 800.43 794.645 796.957Q796.614 793.484 798.498 789.964Q800.382 786.444 802.178 782.879Q803.975 779.313 805.683 775.705Q807.391 772.096 809.01 768.447Q810.628 764.797 812.157 761.109Q813.685 757.421 815.122 753.696Q816.559 749.971 817.904 746.212Q819.249 742.453 820.501 738.662Q821.753 734.871 822.912 731.05Q824.07 727.23 825.134 723.382Q826.198 719.534 827.167 715.661Q828.135 711.787 829.009 707.892Q829.882 703.996 830.659 700.08Q831.436 696.164 832.116 692.23Q832.797 688.296 833.38 684.346Q833.963 680.397 834.449 676.434Q834.935 672.471 835.323 668.498Q835.711 664.524 836.001 660.542Q836.292 656.561 836.484 652.573Q836.676 648.585 836.77 644.594Q836.864 640.602 836.859 636.61C836.705 594.206 825.24 551.975 807.309 513.748C787.138 470.745 758.61 432.349 732.099 393.15L603.269 205.937Q572.63 160.986 541.203 116.582L522.875 89.9153C519.645 85.3074 516.415 80.1224 512.46 76.1052C512.195 75.8354 511.919 75.5754 511.642 75.317Z"/>
	<path fill="#1E0F1B" transform="scale(0.0244141 0.0244141)" d="M511.566 109.508C511.673 109.605 511.784 109.697 511.887 109.798C522.194 119.824 535.053 142.055 543.602 154.519L619.196 266.068L714.998 406.336C740.162 442.977 767.33 479.523 786.504 519.744C803.958 556.353 814.815 595.476 815.327 636.203C816.318 715.003 783.564 792.28 728.784 848.477C670.678 908.085 596.041 940.329 512.749 941.444C439.873 941.676 375.925 917.208 319.399 871.857C259.804 824.045 218.354 748.441 210.087 672.568C205.406 629.612 209.362 586.126 225.057 545.711C243.581 498.011 274.938 456.654 303.359 414.539Q358.112 333.394 413.926 252.975L478.731 157.532C489.484 141.631 499.569 124.441 511.566 109.508ZM512.233 141.853C500.2 155.596 490.404 172.239 480.172 187.393L423.694 271.002L321.829 420.085C296.565 457.057 268.949 494 249.446 534.41C236.341 561.562 230.543 588.465 228.067 618.378C231.285 618.441 234.511 618.556 237.728 618.554C242.16 611.064 247.412 604.056 251.786 596.521C255.916 570.907 271.135 541.013 283.934 518.631C293.466 501.961 304.869 486.169 315.483 470.168Q355.858 410.171 397.331 350.926L473.143 240.819C490.885 214.621 507.749 188.145 526.525 162.626Q519.445 152.194 512.233 141.853Z"/>
	<path fill="#26B6AA" transform="scale(0.0244141 0.0244141)" d="M795.552 613.96C795.824 628.541 797.13 642.755 796.22 657.407Q796.028 660.482 795.768 663.551Q795.508 666.621 795.179 669.684Q794.85 672.747 794.453 675.802Q794.056 678.857 793.591 681.902Q793.126 684.948 792.593 687.982Q792.06 691.016 791.46 694.037Q790.86 697.059 790.192 700.066Q789.524 703.074 788.789 706.066Q788.055 709.057 787.254 712.032Q786.452 715.007 785.585 717.963Q784.717 720.919 783.784 723.854Q782.851 726.79 781.852 729.705Q780.854 732.619 779.791 735.51Q778.727 738.402 777.6 741.268Q776.472 744.135 775.281 746.976Q774.09 749.817 772.836 752.631Q771.581 755.445 770.265 758.23Q768.948 761.015 767.569 763.77Q766.191 766.525 764.751 769.248Q763.311 771.972 761.811 774.662Q760.311 777.353 758.751 780.01Q757.191 782.666 755.572 785.287Q753.954 787.908 752.277 790.492Q750.6 793.077 748.866 795.623Q747.132 798.169 745.341 800.676Q743.551 803.183 741.705 805.649Q739.859 808.116 737.958 810.54Q736.058 812.965 734.104 815.346Q732.15 817.728 730.143 820.065Q728.136 822.402 726.077 824.694Q724.019 826.986 721.91 829.232Q719.801 831.477 717.642 833.675Q715.819 835.597 713.962 837.485Q712.104 839.373 710.212 841.227Q708.32 843.081 706.394 844.9Q704.468 846.719 702.51 848.502Q700.551 850.285 698.56 852.032Q696.569 853.779 694.546 855.489Q692.523 857.199 690.469 858.872Q688.415 860.545 686.331 862.179Q684.247 863.814 682.133 865.411Q680.019 867.007 677.876 868.564Q675.733 870.121 673.562 871.639Q671.391 873.157 669.193 874.634Q666.995 876.112 664.769 877.549Q662.544 878.986 660.293 880.382Q658.042 881.778 655.766 883.132Q653.489 884.487 651.188 885.799Q648.887 887.112 646.563 888.382Q644.238 889.652 641.891 890.879Q639.544 892.106 637.174 893.29Q634.804 894.474 632.414 895.614Q630.023 896.755 627.611 897.851Q625.2 898.947 622.769 899.999Q620.338 901.051 617.888 902.058Q615.438 903.065 612.97 904.027Q610.502 904.989 608.017 905.905Q605.531 906.822 603.03 907.692Q600.528 908.563 598.011 909.388Q595.494 910.213 592.962 910.991Q590.43 911.77 587.884 912.501Q585.338 913.233 582.78 913.918Q580.221 914.603 577.65 915.241Q575.079 915.879 572.497 916.47C558.71 919.594 543.842 922.098 529.706 922.385C528.363 922.412 527.142 922.344 525.817 922.098C529.611 919.988 534.934 919.282 539.18 918.167C546.993 916.117 567.137 910.579 573.045 905.995L572.9 905.31C575.884 904.109 579.378 903.405 582.482 902.49Q591.658 899.832 600.697 896.742C622.2 889.379 642.374 878.56 661.228 865.931Q664.206 863.948 667.132 861.889Q670.059 859.83 672.931 857.697Q675.803 855.563 678.62 853.356Q681.436 851.15 684.195 848.871Q686.954 846.593 689.653 844.244Q692.352 841.896 694.99 839.478Q697.628 837.061 700.203 834.577Q702.778 832.092 705.288 829.543Q707.798 826.993 710.242 824.38Q712.686 821.766 715.062 819.091Q717.437 816.415 719.743 813.68Q722.05 810.944 724.285 808.15Q726.52 805.356 728.682 802.505Q730.844 799.654 732.933 796.749Q735.021 793.844 737.034 790.885Q739.047 787.927 740.983 784.919Q742.919 781.91 744.777 778.852Q746.635 775.794 748.414 772.69Q750.193 769.585 751.891 766.436Q753.59 763.287 755.206 760.095Q756.823 756.903 758.357 753.671Q759.892 750.438 761.342 747.168Q762.793 743.897 764.159 740.59Q765.525 737.283 766.805 733.942Q768.085 730.601 769.279 727.228Q770.473 723.855 771.58 720.453Q772.687 717.05 773.706 713.62Q774.725 710.19 775.656 706.735Q776.586 703.281 777.427 699.803Q778.269 696.325 779.02 692.827Q779.772 689.329 780.433 685.812Q781.094 682.296 781.665 678.764C783.751 665.807 784.856 652.518 785.384 639.412C785.71 631.33 785.046 623.508 786.635 615.514C790.238 615.863 792.32 615.665 795.552 613.96Z"/>
	<path fill="#FEFEFE" transform="scale(0.0244141 0.0244141)" d="M228.067 618.378C231.285 618.441 234.511 618.556 237.728 618.554C236.649 628.363 238.196 640.545 238.887 650.518C242.921 708.762 261.991 763.024 298.656 808.859Q300.731 811.461 302.869 814.012Q305.006 816.563 307.206 819.061Q309.405 821.559 311.665 824.003Q313.924 826.447 316.243 828.834Q318.562 831.222 320.938 833.552Q323.315 835.883 325.747 838.154Q328.18 840.426 330.667 842.638Q333.154 844.849 335.694 846.999Q338.235 849.149 340.827 851.237Q343.419 853.324 346.062 855.348Q348.704 857.372 351.395 859.33Q354.086 861.289 356.824 863.181Q359.562 865.073 362.346 866.898Q365.129 868.723 367.957 870.479Q370.784 872.235 373.653 873.922Q376.522 875.608 379.432 877.225Q382.341 878.841 385.289 880.385Q388.237 881.93 391.222 883.402Q394.207 884.875 397.227 886.273Q400.247 887.672 403.301 888.997Q406.354 890.322 409.439 891.571Q412.523 892.821 415.638 893.995Q418.752 895.169 421.894 896.267Q425.036 897.365 428.204 898.386Q431.372 899.406 434.564 900.349Q437.756 901.292 440.97 902.157Q444.184 903.022 447.418 903.808Q450.652 904.594 453.904 905.301Q457.156 906.008 460.425 906.635Q463.694 907.262 466.977 907.81Q470.26 908.357 473.555 908.824Q476.85 909.291 480.156 909.677C503.034 912.197 526.705 912.584 549.553 909.538C557.412 908.491 565.089 906.416 572.9 905.31L573.045 905.995C567.137 910.579 546.993 916.117 539.18 918.167C534.934 919.282 529.611 919.988 525.817 922.098C512.792 923.556 498.537 922.927 485.485 921.675Q481.984 921.341 478.492 920.921Q475 920.501 471.52 919.994Q468.04 919.488 464.573 918.895Q461.106 918.302 457.655 917.624Q454.204 916.945 450.771 916.181Q447.338 915.417 443.925 914.568Q440.512 913.719 437.121 912.786Q433.73 911.853 430.363 910.836Q426.997 909.819 423.656 908.719Q420.316 907.619 417.003 906.436Q413.691 905.254 410.409 903.989Q407.127 902.725 403.878 901.379Q400.628 900.034 397.413 898.609Q394.198 897.183 391.019 895.678Q387.84 894.173 384.7 892.59Q381.559 891.007 378.459 889.346Q375.359 887.686 372.3 885.949Q369.242 884.212 366.228 882.4Q363.214 880.588 360.245 878.701Q357.277 876.815 354.357 874.856Q351.436 872.896 348.565 870.865Q345.693 868.834 342.874 866.732Q340.054 864.63 337.287 862.459Q334.52 860.288 331.808 858.049Q329.095 855.81 326.439 853.505Q323.783 851.199 321.185 848.829Q318.588 846.458 316.049 844.024Q313.511 841.589 311.034 839.093Q308.556 836.596 306.142 834.039Q303.727 831.482 301.377 828.865Q299.026 826.249 296.742 823.575Q294.457 820.902 292.239 818.172C247.14 763.39 221.228 689.616 228.067 618.378Z"/>
	<path fill="#26B6AA" transform="scale(0.0244141 0.0244141)" d="M526.525 162.626C542.948 187.755 560.151 212.426 577.001 237.273C619.678 300.204 662.797 362.892 704.708 426.333C718.761 447.604 733.368 468.488 747.228 489.889C756.261 503.838 765.316 517.855 772.459 532.894C784.836 558.953 791.379 585.538 795.552 613.96C792.32 615.665 790.238 615.863 786.635 615.514C781.961 609.573 778.181 602.979 773.54 597.007C759.178 578.526 742.575 560.966 725.106 545.398C662.504 489.609 580.137 456.415 495.72 461.463Q492.206 461.708 488.697 462.028Q485.189 462.347 481.688 462.742Q478.187 463.137 474.695 463.607Q471.204 464.077 467.723 464.621Q464.242 465.166 460.774 465.785Q457.306 466.404 453.852 467.096Q450.398 467.789 446.959 468.556Q443.521 469.323 440.099 470.163Q436.678 471.004 433.275 471.917Q429.873 472.83 426.49 473.816Q423.108 474.802 419.748 475.86Q416.387 476.918 413.051 478.048Q409.714 479.178 406.402 480.379Q403.09 481.58 399.804 482.852Q396.519 484.123 393.261 485.465Q390.004 486.807 386.776 488.218Q383.548 489.629 380.351 491.109Q377.153 492.589 373.989 494.137Q370.824 495.686 367.693 497.301Q364.563 498.917 361.467 500.599Q358.372 502.281 355.313 504.029Q352.254 505.777 349.234 507.59Q346.213 509.403 343.232 511.281Q340.251 513.158 337.311 515.099Q334.37 517.04 331.472 519.043Q328.574 521.047 325.72 523.112Q322.866 525.176 320.056 527.302Q317.246 529.428 314.483 531.613Q311.72 533.798 309.004 536.042Q306.288 538.286 303.62 540.587Q300.953 542.889 298.336 545.247Q295.718 547.605 293.152 550.019Q278.261 564.407 264.912 580.237C260.555 585.449 256.638 591.095 252.118 596.154L251.786 596.521C255.916 570.907 271.135 541.013 283.934 518.631C293.466 501.961 304.869 486.169 315.483 470.168Q355.858 410.171 397.331 350.926L473.143 240.819C490.885 214.621 507.749 188.145 526.525 162.626Z"/>
	<path fill="#1E0F1B" transform="scale(0.0244141 0.0244141)" d="M251.786 596.521L252.118 596.154C256.638 591.095 260.555 585.449 264.912 580.237Q278.261 564.407 293.152 550.019Q295.718 547.605 298.336 545.247Q300.953 542.889 303.62 540.587Q306.288 538.286 309.004 536.042Q311.72 533.798 314.483 531.613Q317.246 529.428 320.056 527.302Q322.866 525.176 325.72 523.112Q328.574 521.047 331.472 519.043Q334.37 517.04 337.311 515.099Q340.251 513.158 343.232 511.281Q346.213 509.403 349.234 507.59Q352.254 505.777 355.313 504.029Q358.372 502.281 361.467 500.599Q364.563 498.917 367.693 497.301Q370.824 495.686 373.989 494.137Q377.154 492.589 380.351 491.109Q383.548 489.629 386.776 488.218Q390.004 486.807 393.261 485.465Q396.519 484.124 399.804 482.852Q403.09 481.58 406.402 480.379Q409.714 479.178 413.051 478.048Q416.387 476.918 419.748 475.86Q423.108 474.802 426.49 473.816Q429.873 472.83 433.275 471.917Q436.678 471.004 440.099 470.163Q443.521 469.323 446.959 468.556Q450.398 467.789 453.852 467.096Q457.306 466.404 460.774 465.785Q464.242 465.166 467.723 464.621Q471.204 464.077 474.695 463.607Q478.187 463.137 481.688 462.742Q485.189 462.347 488.697 462.028Q492.206 461.708 495.72 461.463C580.137 456.415 662.504 489.609 725.106 545.398C742.575 560.966 759.178 578.526 773.54 597.007C778.181 602.979 781.961 609.573 786.635 615.514C785.046 623.508 785.71 631.33 785.384 639.412C784.856 652.518 783.751 665.807 781.665 678.764Q781.094 682.296 780.433 685.812Q779.772 689.329 779.02 692.827Q778.269 696.325 777.427 699.803Q776.586 703.281 775.656 706.735Q774.725 710.19 773.706 713.62Q772.687 717.05 771.58 720.453Q770.473 723.855 769.279 727.228Q768.085 730.601 766.805 733.942Q765.525 737.283 764.159 740.59Q762.793 743.897 761.342 747.168Q759.892 750.438 758.357 753.671Q756.823 756.903 755.206 760.095Q753.59 763.287 751.891 766.436Q750.193 769.585 748.414 772.69Q746.635 775.794 744.777 778.852Q742.919 781.91 740.983 784.919Q739.047 787.927 737.034 790.886Q735.021 793.844 732.933 796.749Q730.844 799.654 728.682 802.505Q726.52 805.356 724.285 808.15Q722.05 810.944 719.743 813.679Q717.437 816.415 715.062 819.091Q712.686 821.766 710.242 824.38Q707.798 826.993 705.288 829.543Q702.778 832.092 700.203 834.577Q697.628 837.061 694.99 839.478Q692.352 841.896 689.653 844.244Q686.954 846.593 684.195 848.871Q681.436 851.15 678.62 853.356Q675.803 855.563 672.931 857.697Q670.059 859.83 667.133 861.889Q664.206 863.948 661.228 865.931C642.374 878.56 622.2 889.379 600.697 896.742Q591.658 899.832 582.482 902.49C579.378 903.405 575.884 904.109 572.9 905.31C565.089 906.416 557.412 908.491 549.553 909.538C526.705 912.584 503.034 912.197 480.156 909.677Q476.85 909.291 473.555 908.824Q470.26 908.357 466.977 907.81Q463.694 907.262 460.425 906.635Q457.156 906.008 453.904 905.301Q450.652 904.594 447.418 903.808Q444.183 903.022 440.969 902.157Q437.756 901.292 434.564 900.349Q431.372 899.406 428.204 898.385Q425.036 897.365 421.894 896.267Q418.752 895.169 415.638 893.995Q412.523 892.821 409.439 891.571Q406.354 890.322 403.301 888.997Q400.247 887.672 397.227 886.273Q394.207 884.874 391.222 883.402Q388.237 881.93 385.289 880.385Q382.341 878.841 379.432 877.224Q376.522 875.608 373.653 873.922Q370.784 872.235 367.957 870.479Q365.129 868.722 362.346 866.898Q359.562 865.073 356.824 863.181Q354.086 861.289 351.395 859.33Q348.704 857.372 346.062 855.348Q343.419 853.324 340.827 851.237Q338.235 849.149 335.694 846.999Q333.154 844.849 330.667 842.637Q328.18 840.426 325.747 838.154Q323.315 835.883 320.938 833.552Q318.562 831.222 316.243 828.834Q313.924 826.447 311.665 824.003Q309.405 821.559 307.206 819.061Q305.006 816.563 302.869 814.012Q300.731 811.461 298.656 808.859C261.991 763.024 242.921 708.762 238.887 650.518C238.196 640.545 236.649 628.363 237.728 618.554C242.16 611.064 247.412 604.056 251.786 596.521Z"/>
	<path fill="#FEFEFE" transform="scale(0.0244141 0.0244141)" d="M391.856 503.716C397.842 500.678 403.856 497.81 410.061 495.24Q402.475 501.056 394.791 506.741C394.988 505.885 394.978 505.676 394.823 504.75C393.817 504.441 392.84 504.087 391.856 503.716Z"/>
	<path fill="#FEFEFE" transform="scale(0.0244141 0.0244141)" d="M382.91 508.378C382.863 508.586 382.837 508.801 382.768 509.003C380.668 515.184 359.304 528.184 353.425 532.837C324.143 556.01 301.473 588.223 283.655 620.7C280.683 626.118 276.15 631.501 274.893 637.64C273.649 643.711 274.202 650.671 274.378 656.857Q274.499 662.75 274.893 668.631Q275.286 674.511 275.953 680.368Q276.619 686.224 277.556 692.043Q278.492 697.862 279.698 703.631Q280.904 709.401 282.376 715.108Q283.848 720.815 285.582 726.448Q287.317 732.081 289.312 737.628Q291.306 743.174 293.555 748.622Q297.073 757.02 301.126 765.173Q305.178 773.326 309.749 781.201Q314.319 789.075 319.388 796.639Q324.457 804.202 330.004 811.422C332.759 815.046 341.793 822.088 341.402 826.478C339.982 825.506 338.701 824.344 337.437 823.179C324.103 810.894 312.366 796.435 302.154 781.49C268.88 732.793 257.389 683.296 255.02 625.008C261.091 614.007 268.54 603.942 276.322 594.104Q278.978 590.706 281.73 587.386Q284.482 584.065 287.329 580.825Q290.176 577.586 293.114 574.429Q296.053 571.272 299.081 568.202Q302.109 565.131 305.225 562.148Q308.34 559.166 311.54 556.274Q314.739 553.383 318.021 550.584Q321.303 547.786 324.663 545.083Q328.024 542.38 331.461 539.775Q334.898 537.17 338.408 534.665Q341.919 532.159 345.5 529.756Q349.081 527.353 352.73 525.053Q356.379 522.754 360.092 520.561Q363.805 518.367 367.58 516.282Q371.355 514.196 375.188 512.22Q379.021 510.243 382.91 508.378Z"/>
	<path fill="#26B6AA" transform="scale(0.0244141 0.0244141)" d="M609.696 493.004C621.278 496.952 632.207 502.65 642.942 508.474C691.506 534.823 735.542 573.002 766.512 618.964C766.161 695.02 738.805 765.113 684.496 818.868C638.603 864.292 570.537 891.45 506.099 891.007C458.53 890.68 413.279 875.812 373.102 850.715C362.369 844.011 351.438 836.744 342.469 827.759C342.067 827.357 341.726 826.945 341.402 826.478C341.793 822.088 332.759 815.046 330.004 811.422Q324.457 804.202 319.388 796.638Q314.319 789.075 309.749 781.201Q305.178 773.326 301.126 765.173Q297.073 757.02 293.555 748.622Q291.306 743.174 289.312 737.628Q287.317 732.081 285.582 726.448Q283.848 720.815 282.376 715.108Q280.904 709.401 279.698 703.632Q278.492 697.862 277.556 692.043Q276.619 686.224 275.953 680.368Q275.286 674.511 274.893 668.631Q274.499 662.75 274.378 656.857C274.202 650.671 273.649 643.711 274.893 637.64C276.15 631.501 280.683 626.118 283.655 620.7C301.473 588.223 324.143 556.01 353.425 532.837C359.304 528.184 380.668 515.184 382.768 509.003C382.837 508.801 382.863 508.586 382.91 508.378C385.595 506.281 388.743 505.025 391.856 503.716C392.84 504.087 393.817 504.441 394.823 504.75C394.978 505.676 394.988 505.885 394.791 506.741C386.838 513.802 378.939 520.731 372.054 528.885C348.852 556.36 334.628 593.452 332.505 629.25Q332.358 631.457 332.267 633.666Q332.176 635.875 332.14 638.087Q332.104 640.298 332.124 642.509Q332.144 644.72 332.219 646.93Q332.294 649.141 332.425 651.348Q332.556 653.555 332.742 655.759Q332.928 657.963 333.17 660.161Q333.411 662.359 333.708 664.55Q334.004 666.742 334.356 668.925Q334.708 671.108 335.114 673.282Q335.52 675.455 335.981 677.618Q336.442 679.781 336.957 681.932Q337.472 684.082 338.041 686.219Q338.609 688.356 339.232 690.478Q339.854 692.6 340.529 694.706Q341.205 696.812 341.933 698.9Q342.661 700.988 343.441 703.057Q344.222 705.126 345.054 707.175Q345.886 709.224 346.769 711.251Q347.652 713.278 348.586 715.283Q349.52 717.287 350.504 719.268Q351.488 721.248 352.522 723.203Q353.555 725.158 354.637 727.087Q355.719 729.015 356.85 730.916Q357.98 732.817 359.157 734.688Q360.335 736.56 361.559 738.401Q362.784 740.243 364.054 742.053Q365.324 743.864 366.639 745.641Q367.955 747.419 369.314 749.163Q370.674 750.907 372.076 752.617Q373.479 754.326 374.925 756Q376.37 757.673 377.857 759.31C384.512 766.772 391.98 774.225 399.939 780.266C404.175 783.481 409.129 786.045 413.075 789.58C444.725 807.903 477.831 818.951 514.67 818.771Q516.819 818.756 518.967 818.688Q521.115 818.62 523.26 818.499Q525.406 818.379 527.548 818.206Q529.69 818.032 531.827 817.807Q533.964 817.581 536.094 817.303Q538.225 817.025 540.349 816.695Q542.472 816.365 544.587 815.982Q546.702 815.6 548.806 815.166Q550.911 814.732 553.004 814.247Q555.098 813.761 557.178 813.225Q559.259 812.688 561.326 812.101Q563.393 811.513 565.445 810.875Q567.497 810.237 569.533 809.549Q571.569 808.861 573.587 808.123Q575.605 807.385 577.605 806.598Q579.604 805.81 581.584 804.974Q583.564 804.138 585.522 803.254Q587.481 802.37 589.417 801.438Q591.353 800.506 593.266 799.526Q595.179 798.547 597.067 797.521Q598.955 796.495 600.818 795.423Q602.68 794.351 604.516 793.234Q606.352 792.117 608.159 790.955Q609.967 789.793 611.746 788.587Q613.524 787.381 615.273 786.132Q617.021 784.883 618.739 783.591Q620.456 782.299 622.141 780.966Q623.826 779.632 625.478 778.258Q627.13 776.883 628.748 775.469Q630.366 774.054 631.948 772.601Q633.531 771.147 635.077 769.655Q636.624 768.163 638.133 766.633Q639.682 765.083 641.192 763.494Q642.702 761.906 644.173 760.281Q645.643 758.656 647.073 756.995Q648.503 755.334 649.891 753.639Q651.279 751.943 652.625 750.213Q653.97 748.483 655.273 746.721Q656.576 744.958 657.834 743.164Q659.093 741.37 660.307 739.546Q661.52 737.721 662.689 735.867Q663.857 734.013 664.979 732.13Q666.101 730.247 667.176 728.338Q668.251 726.428 669.279 724.492Q670.306 722.557 671.286 720.596Q672.265 718.635 673.195 716.651Q674.126 714.667 675.007 712.661Q675.888 710.654 676.719 708.626Q677.551 706.598 678.331 704.551Q679.112 702.503 679.842 700.436Q680.572 698.37 681.25 696.286Q681.929 694.202 682.556 692.102Q683.182 690.002 683.757 687.887Q684.332 685.772 684.854 683.644Q685.376 681.516 685.845 679.375Q686.314 677.234 686.73 675.083Q687.146 672.931 687.509 670.769Q687.872 668.608 688.181 666.439Q688.49 664.269 688.746 662.092Q689.001 659.916 689.202 657.733Q689.404 655.551 689.551 653.365Q689.699 651.178 689.792 648.988Q689.885 646.799 689.924 644.608Q689.963 642.416 689.948 640.225C689.682 607.742 679.137 571.905 661.215 544.72C652.542 531.564 642.261 520.187 631.087 509.124C624.107 503.565 617.065 498.041 609.696 493.004Z"/>
	<path fill="#FEFEFE" transform="scale(0.0244141 0.0244141)" d="M631.087 509.124C632.146 509.01 632.974 508.951 633.977 509.366C641.797 512.602 665.435 530.881 672.659 536.71C697 556.352 737.986 591.799 741.307 624.675C744.705 658.311 725.245 708.932 708.915 737.97Q704.45 745.829 699.315 753.267Q694.181 760.706 688.416 767.668C654.471 808.671 606.89 828.962 554.628 833.762C512.144 837.663 468.442 829.566 432.05 806.636C426.886 803.382 421.53 800.012 416.848 796.092C415.231 794.738 413.51 793.164 412.596 791.234C412.703 790.582 412.761 790.171 413.075 789.58C444.725 807.903 477.831 818.951 514.67 818.771Q516.819 818.756 518.967 818.688Q521.115 818.62 523.26 818.499Q525.406 818.379 527.548 818.206Q529.69 818.032 531.827 817.807Q533.964 817.581 536.094 817.303Q538.225 817.025 540.349 816.695Q542.472 816.365 544.587 815.982Q546.702 815.6 548.806 815.166Q550.911 814.732 553.004 814.247Q555.098 813.761 557.178 813.225Q559.259 812.688 561.326 812.101Q563.393 811.513 565.445 810.875Q567.497 810.237 569.533 809.549Q571.569 808.861 573.587 808.123Q575.605 807.385 577.605 806.598Q579.604 805.81 581.584 804.974Q583.564 804.138 585.522 803.254Q587.481 802.37 589.417 801.438Q591.353 800.506 593.266 799.526Q595.179 798.547 597.067 797.521Q598.955 796.495 600.818 795.423Q602.68 794.351 604.516 793.234Q606.352 792.117 608.159 790.955Q609.967 789.793 611.746 788.587Q613.524 787.381 615.273 786.132Q617.021 784.883 618.739 783.591Q620.456 782.299 622.141 780.966Q623.826 779.632 625.478 778.258Q627.13 776.883 628.748 775.469Q630.366 774.054 631.948 772.601Q633.531 771.147 635.077 769.655Q636.624 768.163 638.133 766.633Q639.682 765.083 641.192 763.494Q642.702 761.906 644.173 760.281Q645.643 758.656 647.073 756.995Q648.503 755.334 649.891 753.639Q651.279 751.943 652.625 750.213Q653.97 748.483 655.273 746.721Q656.576 744.958 657.834 743.164Q659.093 741.37 660.307 739.546Q661.52 737.721 662.689 735.867Q663.857 734.013 664.979 732.13Q666.101 730.247 667.176 728.338Q668.251 726.428 669.279 724.492Q670.306 722.557 671.286 720.596Q672.265 718.635 673.195 716.651Q674.126 714.667 675.007 712.661Q675.888 710.654 676.719 708.626Q677.551 706.598 678.331 704.551Q679.112 702.503 679.842 700.436Q680.572 698.37 681.25 696.286Q681.929 694.202 682.556 692.102Q683.182 690.002 683.757 687.887Q684.332 685.772 684.854 683.644Q685.376 681.516 685.845 679.375Q686.314 677.234 686.73 675.083Q687.146 672.931 687.509 670.769Q687.872 668.608 688.181 666.439Q688.49 664.269 688.746 662.092Q689.001 659.916 689.202 657.733Q689.404 655.551 689.551 653.365Q689.699 651.178 689.792 648.988Q689.885 646.799 689.924 644.608Q689.963 642.416 689.948 640.225C689.682 607.742 679.137 571.905 661.215 544.72C652.542 531.564 642.261 520.187 631.087 509.124Z"/>
	<path fill="#FEFEFE" transform="scale(0.0244141 0.0244141)" d="M500.777 478.701C500.811 478.694 500.845 478.685 500.88 478.681C509.608 477.741 518.645 478.39 527.359 479.303C560.259 482.75 590.695 494.336 616.369 515.516Q617.924 516.796 619.446 518.115Q620.969 519.433 622.459 520.788Q623.948 522.143 625.404 523.535Q626.86 524.927 628.281 526.354Q629.703 527.781 631.088 529.242Q632.474 530.704 633.823 532.199Q635.172 533.695 636.484 535.223Q637.796 536.751 639.07 538.311Q640.344 539.87 641.579 541.461Q642.814 543.052 644.01 544.673Q645.205 546.293 646.361 547.943Q647.516 549.593 648.63 551.271Q649.745 552.948 650.817 554.653Q651.89 556.357 652.92 558.088Q653.951 559.818 654.938 561.573Q655.926 563.329 656.87 565.108Q657.814 566.887 658.713 568.689Q659.613 570.491 660.469 572.314Q661.324 574.138 662.134 575.982Q662.944 577.825 663.708 579.689Q664.472 581.552 665.191 583.434Q665.909 585.315 666.581 587.214Q667.252 589.113 667.877 591.027Q668.502 592.942 669.079 594.871Q669.657 596.801 670.186 598.744Q670.716 600.687 671.198 602.643Q671.679 604.598 672.113 606.565Q672.546 608.532 672.931 610.509Q673.316 612.486 673.652 614.471Q673.988 616.457 674.275 618.451Q674.562 620.444 674.8 622.444Q675.037 624.444 675.226 626.449Q675.415 628.448 675.555 630.451Q675.694 632.454 675.784 634.46Q675.875 636.466 675.915 638.473Q675.956 640.48 675.946 642.488Q675.937 644.496 675.879 646.503Q675.82 648.51 675.712 650.515Q675.603 652.52 675.446 654.522Q675.288 656.523 675.081 658.521Q674.873 660.518 674.617 662.509Q674.36 664.501 674.055 666.485Q673.749 668.47 673.395 670.446Q673.04 672.422 672.637 674.389Q672.234 676.356 671.782 678.312Q671.33 680.269 670.83 682.214Q670.33 684.158 669.783 686.09Q669.235 688.021 668.639 689.939Q668.044 691.857 667.401 693.759Q666.759 695.661 666.07 697.547Q665.38 699.433 664.644 701.301Q663.909 703.169 663.127 705.019Q662.345 706.868 661.518 708.698Q660.691 710.527 659.819 712.336Q658.947 714.144 658.03 715.931Q657.114 717.717 656.153 719.481Q655.193 721.244 654.189 722.983Q653.186 724.722 652.14 726.436Q651.093 728.15 650.005 729.837Q648.917 731.524 647.787 733.184Q646.657 734.844 645.487 736.476Q644.317 738.107 643.106 739.709Q641.896 741.311 640.646 742.883Q639.397 744.455 638.109 745.995C609.116 780.942 567.328 799.706 522.733 803.929C480.469 805.876 440.146 793.962 407.081 767.231C374.45 740.851 351.996 701.469 347.611 659.576Q347.392 657.573 347.222 655.566Q347.052 653.559 346.932 651.548Q346.813 649.537 346.743 647.524Q346.673 645.511 346.653 643.497Q346.633 641.482 346.663 639.468Q346.693 637.454 346.773 635.441Q346.854 633.428 346.984 631.418Q347.114 629.408 347.294 627.401Q347.473 625.395 347.703 623.394Q347.933 621.392 348.212 619.397Q348.491 617.402 348.82 615.415Q349.148 613.428 349.526 611.449Q349.904 609.47 350.331 607.502Q350.758 605.533 351.234 603.576Q351.709 601.618 352.233 599.673Q352.757 597.728 353.329 595.797Q353.902 593.865 354.521 591.948Q355.141 590.032 355.809 588.131Q356.476 586.23 357.19 584.347Q357.905 582.463 358.665 580.598Q359.426 578.733 360.233 576.887Q361.04 575.041 361.892 573.216Q362.745 571.391 363.642 569.587Q364.539 567.784 365.481 566.003Q366.423 564.223 367.409 562.466Q368.395 560.709 369.424 558.978Q370.453 557.246 371.525 555.54Q372.597 553.835 373.711 552.156Q374.824 550.478 375.98 548.827Q377.135 547.177 378.33 545.556Q379.526 543.935 380.762 542.344Q381.997 540.753 383.272 539.193C414.265 501.054 452.728 483.718 500.777 478.701Z"/>
	<path fill="#1E0F1B" transform="scale(0.0244141 0.0244141)" d="M447.417 599.667C458.817 597.94 471.533 601.055 481.072 607.422Q482.088 608.111 483.069 608.848Q484.05 609.586 484.993 610.372Q485.936 611.157 486.839 611.988Q487.743 612.819 488.604 613.693Q489.465 614.567 490.282 615.483Q491.099 616.399 491.87 617.354Q492.641 618.309 493.364 619.3Q494.087 620.292 494.761 621.318Q495.434 622.345 496.056 623.403Q496.677 624.461 497.246 625.548Q497.815 626.636 498.33 627.75Q498.844 628.864 499.303 630.003Q499.762 631.141 500.165 632.3Q500.567 633.46 500.912 634.638Q501.257 635.816 501.543 637.009Q501.829 638.203 502.056 639.409C504.596 652.858 502.031 666.86 494.205 678.177C485.77 690.375 473.41 696.814 459.076 699.456C446.48 700.254 434.932 698.615 424.426 691.187Q423.413 690.478 422.437 689.719Q421.46 688.96 420.523 688.154Q419.585 687.349 418.688 686.497Q417.791 685.646 416.938 684.751Q416.084 683.857 415.276 682.921Q414.467 681.986 413.706 681.011Q412.945 680.037 412.233 679.026Q411.521 678.015 410.86 676.97Q410.198 675.925 409.589 674.849Q408.981 673.773 408.426 672.668Q407.871 671.563 407.371 670.432Q406.872 669.301 406.428 668.146Q405.985 666.992 405.6 665.817Q405.214 664.642 404.887 663.45Q404.56 662.257 404.292 661.05Q404.025 659.843 403.817 658.624C401.525 645.181 404.207 631.757 412.255 620.678C420.984 608.662 432.908 602.027 447.417 599.667Z"/>
	<path fill="#1E0F1B" transform="scale(0.0244141 0.0244141)" d="M528.012 513.633C533.669 513.268 539.687 513.09 545.107 514.987C551.866 517.352 556.365 522.978 562.228 526.766C565.706 529.014 569.678 530.681 573.315 532.674Q577.997 535.28 582.405 538.326Q586.813 541.373 590.905 544.832C616.444 566.01 631.316 597.842 634.236 630.629Q634.379 632.198 634.482 633.77Q634.586 635.341 634.65 636.915Q634.714 638.489 634.74 640.064Q634.765 641.639 634.751 643.215Q634.737 644.79 634.684 646.364Q634.631 647.938 634.539 649.511Q634.446 651.083 634.315 652.653Q634.184 654.223 634.014 655.789Q633.843 657.355 633.634 658.916Q633.425 660.478 633.177 662.033Q632.929 663.589 632.642 665.138Q632.356 666.687 632.031 668.228Q631.706 669.769 631.343 671.302Q630.979 672.835 630.578 674.358Q630.177 675.882 629.738 677.394Q629.299 678.907 628.823 680.409Q628.346 681.91 627.833 683.399Q627.319 684.889 626.768 686.364Q626.218 687.84 625.631 689.302Q625.044 690.764 624.421 692.211Q623.797 693.657 623.138 695.088Q622.479 696.519 621.785 697.933Q621.091 699.347 620.361 700.743Q619.632 702.139 618.868 703.517Q618.104 704.895 617.307 706.253Q616.509 707.611 615.677 708.949Q614.846 710.287 613.982 711.604Q613.117 712.921 612.22 714.216Q611.324 715.511 610.395 716.783Q609.466 718.056 608.506 719.305Q607.546 720.553 606.555 721.778Q605.564 723.002 604.543 724.202C587.656 744.186 560.954 763.294 534.124 765.499C526.522 766.167 519.372 765.409 512.679 761.481Q511.978 761.062 511.299 760.608Q510.62 760.154 509.964 759.667Q509.308 759.179 508.678 758.66Q508.048 758.14 507.444 757.589Q506.84 757.039 506.265 756.459Q505.69 755.879 505.145 755.271Q504.599 754.662 504.085 754.028Q503.571 753.393 503.089 752.733Q502.607 752.074 502.159 751.391Q501.71 750.708 501.297 750.003Q500.883 749.299 500.506 748.574Q500.128 747.85 499.787 747.108Q499.446 746.365 499.143 745.607Q498.84 744.848 498.575 744.075Q498.31 743.302 498.084 742.517Q497.858 741.732 497.672 740.937C495.956 733.896 496.536 726.774 498.794 719.916C506.502 696.512 522.983 699.664 540.603 691.125C548.859 687.125 555.909 679.856 560.577 672.043C568.583 658.645 570.398 642.896 566.487 627.866Q566.276 627.045 566.043 626.231Q565.809 625.416 565.553 624.608Q565.297 623.8 565.018 623Q564.739 622.2 564.439 621.407Q564.138 620.615 563.815 619.831Q563.493 619.048 563.148 618.273Q562.804 617.499 562.438 616.735Q562.072 615.97 561.686 615.216Q561.299 614.462 560.891 613.719Q560.483 612.976 560.055 612.245Q559.627 611.514 559.178 610.795Q558.73 610.076 558.262 609.369Q557.793 608.663 557.306 607.97Q556.818 607.277 556.311 606.598Q555.804 605.918 555.279 605.254Q554.753 604.589 554.209 603.939Q553.665 603.289 553.104 602.654Q552.542 602.02 551.963 601.401Q551.384 600.782 550.787 600.18Q550.191 599.578 549.579 598.992Q548.966 598.407 548.337 597.839Q547.708 597.27 547.064 596.72Q546.42 596.169 545.76 595.637Q545.101 595.105 544.427 594.591Q543.753 594.077 543.065 593.582Q542.377 593.087 541.676 592.612Q540.974 592.136 540.26 591.681Q539.545 591.225 538.818 590.789Q538.092 590.353 537.353 589.938Q536.614 589.523 535.864 589.128Q535.114 588.734 534.354 588.36Q533.593 587.986 532.822 587.634C526.913 584.863 520.418 583.286 514.787 579.928C507.027 575.3 501.522 568.17 499.392 559.356C497.03 549.581 498.341 538.441 503.728 529.843C509.328 520.906 517.951 515.966 528.012 513.633Z"/>
	<path fill="#FEFEFE" transform="scale(0.0244141 0.0244141)" d="M532.776 527.597C536.911 527.353 541.613 528.617 545.171 530.683C550.581 533.826 554.225 539.221 555.592 545.282Q555.716 545.808 555.812 546.34Q555.909 546.872 555.979 547.408Q556.049 547.945 556.091 548.484Q556.134 549.023 556.149 549.563Q556.164 550.104 556.151 550.644Q556.139 551.185 556.1 551.724Q556.06 552.263 555.993 552.8Q555.926 553.336 555.832 553.869Q555.738 554.401 555.617 554.928Q555.497 555.455 555.349 555.975Q555.202 556.495 555.028 557.008Q554.855 557.52 554.656 558.022Q554.456 558.525 554.232 559.017Q554.008 559.509 553.758 559.989Q553.509 560.469 553.236 560.935Q552.963 561.402 552.667 561.854C548.768 567.762 542.906 570.094 536.228 571.318C531.582 571.176 527.186 570.569 523.092 568.183Q522.625 567.905 522.173 567.603Q521.72 567.301 521.284 566.976Q520.848 566.652 520.429 566.306Q520.009 565.96 519.608 565.593Q519.207 565.226 518.825 564.839Q518.443 564.452 518.081 564.046Q517.719 563.64 517.379 563.216Q517.038 562.792 516.719 562.352Q516.401 561.911 516.105 561.455Q515.809 560.999 515.536 560.528Q515.264 560.058 515.016 559.574Q514.768 559.09 514.545 558.594Q514.322 558.099 514.124 557.592Q513.926 557.085 513.755 556.57Q513.583 556.054 513.438 555.53Q513.292 555.006 513.174 554.475Q513.045 553.917 512.945 553.354Q512.845 552.79 512.774 552.222Q512.704 551.654 512.663 551.083Q512.622 550.512 512.61 549.94Q512.599 549.368 512.617 548.796Q512.636 548.224 512.684 547.653Q512.732 547.083 512.81 546.516Q512.888 545.949 512.995 545.386Q513.102 544.824 513.238 544.268Q513.374 543.712 513.539 543.164Q513.703 542.616 513.897 542.077Q514.09 541.538 514.31 541.01Q514.531 540.482 514.779 539.966Q515.027 539.45 515.301 538.947Q515.576 538.445 515.876 537.958Q516.176 537.47 516.501 536.999C520.499 531.141 526.134 528.935 532.776 527.597Z"/>
	<path fill="#FEFEFE" transform="scale(0.0244141 0.0244141)" d="M570.128 547.82C572.232 548.906 574.186 550.184 576.129 551.532C598.742 567.221 612.589 592.045 617.367 618.84C622.798 649.292 617.001 681.811 599.097 707.302Q598.345 708.382 597.567 709.442Q596.789 710.503 595.985 711.545Q595.181 712.586 594.352 713.607Q593.523 714.629 592.669 715.63Q591.816 716.631 590.937 717.61Q590.059 718.59 589.158 719.548Q588.256 720.505 587.331 721.441Q586.406 722.376 585.458 723.289Q584.51 724.201 583.541 725.09Q582.571 725.979 581.58 726.844Q580.589 727.709 579.577 728.55Q578.565 729.39 577.532 730.206Q576.5 731.021 575.448 731.811Q574.396 732.601 573.325 733.365Q572.254 734.129 571.165 734.867Q570.075 735.604 568.968 736.315Q567.861 737.025 566.737 737.709Q565.613 738.392 564.472 739.047Q563.331 739.703 562.175 740.33Q561.019 740.958 559.847 741.557Q558.676 742.156 557.49 742.726Q556.305 743.296 555.105 743.837Q553.906 744.377 552.694 744.889Q551.482 745.4 550.258 745.882Q549.033 746.363 547.798 746.814Q546.562 747.266 545.316 747.687Q544.069 748.108 542.813 748.498Q541.557 748.888 540.291 749.248Q539.026 749.607 537.752 749.936Q536.478 750.264 535.196 750.561Q533.915 750.858 532.626 751.124Q531.338 751.389 530.043 751.623C526.18 750.769 522.472 749.559 519.233 747.218C514.71 743.949 512.599 739.354 511.855 733.921C508.871 712.153 535.662 710.491 549.094 703.259C557.064 698.969 564.011 692.179 569.317 684.91Q570.342 683.48 571.296 682.002Q572.25 680.524 573.13 679.001Q574.011 677.478 574.816 675.913Q575.621 674.349 576.348 672.747Q577.076 671.146 577.725 669.51Q578.373 667.875 578.941 666.21Q579.509 664.545 579.995 662.854Q580.481 661.163 580.883 659.451Q581.286 657.738 581.605 656.008Q581.923 654.278 582.157 652.534Q582.391 650.791 582.539 649.038Q582.687 647.285 582.749 645.527Q582.812 643.768 582.788 642.009Q582.765 640.25 582.655 638.494Q582.546 636.739 582.35 634.99Q582.155 633.242 581.875 631.505C578.789 611.875 567.004 592.999 550.998 581.371C553.468 579.792 556.02 578.144 558.244 576.231C567.174 568.553 569.345 559.125 570.128 547.82Z"/>
</svg>
